<svg width="40" height="40" viewBox="0 0 40 40" fill="none" xmlns="http://www.w3.org/2000/svg">
<rect width="40" height="40" fill="#C5C1D3"/>
<path d="M13.8759 30V28.4903C15.6049 28.4645 16.8694 28.2452 17.6694 27.8323C18.4694 27.4194 18.8694 26.6323 18.8694 25.471V16.9161C18.8694 15.729 18.7275 14.8387 18.4436 14.2452C18.1597 13.6516 17.6307 13.2516 16.8565 13.0452C16.0823 12.8387 14.9597 12.7355 13.4888 12.7355V11.2258C15.6565 11.1742 17.4371 11.0065 18.8307 10.7226C20.2501 10.4129 21.5146 9.92258 22.6242 9.25161V25.471C22.6242 26.6065 22.9726 27.3935 23.6694 27.8323C24.3662 28.2452 25.6049 28.4645 27.3855 28.4903V30C26.7404 29.9742 25.7984 29.9484 24.5597 29.9226C23.321 29.871 22.0823 29.8452 20.8436 29.8452C19.5017 29.8452 18.1726 29.871 16.8565 29.9226C15.5662 29.9484 14.5726 29.9742 13.8759 30Z" fill="black"/>
</svg>
