<svg width="40" height="42" viewBox="0 0 40 42" fill="none" xmlns="http://www.w3.org/2000/svg">
<rect width="40" height="42" fill="#C5C1D3"/>
<path d="M29.2785 31.1935C29.0978 31.1161 28.672 31.0645 28.0011 31.0387C27.3301 31.0129 26.6075 31 25.8333 31H12.4011V29.5677C14.0269 28.3548 15.4978 27.1935 16.814 26.0839C18.1301 24.9742 19.2656 23.8903 20.2204 22.8323C21.1753 21.7484 21.9107 20.6774 22.4269 19.6194C22.943 18.5355 23.2011 17.4129 23.2011 16.2516C23.2011 14.9355 22.8398 13.9548 22.1172 13.3097C21.4204 12.6387 20.3882 12.3032 19.0204 12.3032C17.9365 12.3032 17.0849 12.4581 16.4656 12.7677C15.8462 13.0774 15.5365 13.4774 15.5365 13.9677C15.5365 14.2774 15.6527 14.5871 15.8849 14.8968C16.1172 15.2065 16.3365 15.5419 16.543 15.9032C16.7494 16.2645 16.8527 16.6774 16.8527 17.1419C16.8527 17.6839 16.6591 18.1226 16.272 18.4581C15.9107 18.7677 15.4204 18.9226 14.8011 18.9226C14.0527 18.9226 13.4462 18.6774 12.9817 18.1871C12.5172 17.6968 12.2849 17.0258 12.2849 16.1742C12.2849 15.0903 12.6462 14.1226 13.3688 13.271C14.0914 12.4194 15.0849 11.7484 16.3494 11.2581C17.614 10.7677 19.0204 10.5226 20.5688 10.5226C22.5817 10.5226 24.1946 10.9742 25.4075 11.8774C26.6204 12.7548 27.2269 14.0323 27.2269 15.7097C27.2269 16.6645 26.9817 17.5935 26.4914 18.4968C26.0269 19.3742 25.3301 20.2774 24.4011 21.2065C23.4978 22.1355 22.4011 23.129 21.1107 24.1871C19.8204 25.2194 18.3753 26.3548 16.7753 27.5935V27.8258H24.672C25.7817 27.8258 26.5301 27.6323 26.9172 27.2452C27.3301 26.8581 27.5882 26.1484 27.6914 25.1161H29.1236C29.1236 26.7161 29.1365 27.9548 29.1623 28.8323C29.1882 29.7097 29.2269 30.4968 29.2785 31.1935Z" fill="black"/>
</svg>
