<svg width="80" height="80" viewBox="0 0 80 80" fill="none" xmlns="http://www.w3.org/2000/svg">
<g clip-path="url(#clip0_448_371)">
<path d="M78.9124 1.08762C78.9124 1.08762 54.9812 -0.59138 45.919 8.41949C45.8347 8.55513 31.2552 23.0832 31.2552 23.0832L12.9255 26.7492L1.92773 34.0811L31.2552 48.7448L45.919 78.0723L53.2509 67.0745L56.9168 48.7448C56.9168 48.7448 71.4449 34.1654 71.5805 34.0811C80.5914 25.0189 78.9124 1.08762 78.9124 1.08762ZM56.9168 26.7492C55.9445 26.7492 55.0121 26.3629 54.3246 25.6755C53.6371 24.988 53.2509 24.0555 53.2509 23.0832C53.2509 22.111 53.6371 21.1785 54.3246 20.491C55.0121 19.8035 55.9445 19.4173 56.9168 19.4173C57.8891 19.4173 58.8215 19.8035 59.509 20.491C60.1965 21.1785 60.5827 22.111 60.5827 23.0832C60.5827 24.0555 60.1965 24.988 59.509 25.6755C58.8215 26.3629 57.8891 26.7492 56.9168 26.7492ZM20.2574 59.7426C16.5915 56.0767 9.25961 56.0767 5.59367 59.7426C1.92773 63.4086 1.92773 78.0723 1.92773 78.0723C1.92773 78.0723 16.5915 78.0723 20.2574 74.4064C23.9234 70.7404 23.9234 63.4086 20.2574 59.7426Z" stroke="#AC36A6" stroke-opacity="0.93" stroke-width="2"/>
</g>
<defs>
<clipPath id="clip0_448_371">
<rect width="80" height="80" fill="white"/>
</clipPath>
</defs>
</svg>
