<svg width="80" height="80" viewBox="0 0 80 80" fill="none" xmlns="http://www.w3.org/2000/svg">
<g clip-path="url(#clip0_305_409)">
<path d="M75.2426 20.4737H79.1437V40.0306H75.2426V20.4737ZM71.3158 40.0306H75.2426V47.8585H71.3158V40.0306ZM71.3158 12.6458H75.2426V20.4737H71.3158V12.6458ZM67.4147 47.8585H71.3158V51.7596H67.4147V47.8585ZM67.4147 8.74465H71.3158V12.6458H67.4147V8.74465ZM63.4879 51.7596H67.4147V55.6864H63.4879V51.7596ZM63.4879 28.3016H67.4147V43.9317H63.4879V28.3016ZM59.5868 55.6864H63.4879V59.5875H59.5868V55.6864ZM59.5868 43.9317H63.4879V47.8585H59.5868V43.9317ZM59.5868 4.84353H67.4147V8.74465H59.5868V4.84353ZM55.6856 59.5875H59.5868V63.4886H55.6856V59.5875ZM55.6856 47.8585H59.5868V51.7596H55.6856V47.8585ZM51.7589 24.4004H63.4879V28.3016H51.7589V24.4004ZM51.7589 63.4886H55.6856V67.4154H51.7589V63.4886ZM47.8577 67.4154H51.7589V71.3165H47.8577V67.4154ZM40.0298 51.7596H55.6856V55.6864H40.0298V51.7596ZM47.8577 28.3016H51.7589V32.2027H47.8577V28.3016ZM47.8577 20.4737H55.6856V16.5725H59.5868V12.6458H55.6856V8.74465H47.8577V12.6458H43.9566V16.5725H47.8577V20.4737ZM43.9566 71.3165H47.8577V75.2176H43.9566V71.3165ZM43.9566 32.2027H47.8577V36.1295H43.9566V32.2027ZM40.0298 36.1295H43.9566V40.0306H40.0298V36.1295ZM20.4729 75.2176H43.9566V79.1444H20.4729V75.2176ZM36.1287 40.0306H40.0298V51.7596H36.1287V40.0306ZM32.2019 0.916748L59.5868 0.916748V4.84353H32.2019V0.916748ZM36.1287 55.6864H28.3008V59.5875H24.3997V67.4154H28.3008V71.3165H36.1287V67.4154H40.0298V59.5875H36.1287V55.6864ZM24.3997 4.84353H32.2019V8.74465H24.3997V4.84353ZM24.3997 32.2027H32.2019V28.3016H36.1287V20.4737H32.2019V16.5725H24.3997V20.4737H20.4729V28.3016H24.3997V32.2027ZM12.6707 51.7596H20.4729V47.8585H24.3997V40.0306H20.4729V36.1295H12.6707V40.0306H8.74391V47.8585H12.6707V51.7596ZM16.5718 8.74465H24.3997V12.6458H16.5718V8.74465ZM16.5718 71.3165H20.4729V75.2176H16.5718V71.3165ZM8.74391 67.4154H16.5718V71.3165H8.74391V67.4154ZM12.6707 12.6458H16.5718V16.5725H12.6707V12.6458ZM8.74391 16.5725H12.6707V24.4004H8.74391V16.5725ZM4.8428 59.5875H8.74391V67.4154H4.8428V59.5875ZM4.8428 24.4004H8.74391V32.2027H4.8428V24.4004ZM0.916016 32.2027H4.8428V59.5875H0.916016L0.916016 32.2027Z" fill="#AC36A6" fill-opacity="0.93"/>
</g>
<defs>
<clipPath id="clip0_305_409">
<rect width="80" height="80" fill="white"/>
</clipPath>
</defs>
</svg>
