<svg width="44" height="44" viewBox="0 0 44 44" fill="none" xmlns="http://www.w3.org/2000/svg">
<path fill-rule="evenodd" clip-rule="evenodd" d="M27.4998 3.66675C28.9894 3.66666 30.4437 4.1202 31.6692 4.96701C32.8947 5.81383 33.8332 7.01377 34.3599 8.40714C34.8866 9.80052 34.9765 11.3212 34.6176 12.767C34.2587 14.2127 33.468 15.5148 32.3508 16.5001C33.7173 17.7024 34.5878 19.3699 34.7931 21.1784C34.9984 22.9869 34.5238 24.8072 33.4617 26.2852C32.3995 27.7632 30.8256 28.7935 29.0461 29.1756C27.2665 29.5577 25.4084 29.2643 23.8331 28.3526V33.0001C23.8331 34.2255 23.5259 35.4313 22.9398 36.5074C22.3537 37.5835 21.5073 38.4956 20.4778 39.1603C19.4484 39.825 18.2689 40.2212 17.0469 40.3126C15.8249 40.404 14.5995 40.1877 13.4827 39.6836C12.3658 39.1794 11.3931 38.4035 10.6534 37.4266C9.91368 36.4496 9.43055 35.3029 9.24816 34.0912C9.06577 32.8795 9.18993 31.6414 9.60929 30.49C10.0286 29.3386 10.7298 28.3107 11.6488 27.5001C10.8686 26.8119 10.2437 25.9655 9.81572 25.0172C9.38773 24.069 9.16642 23.0405 9.16647 22.0001C9.16642 20.9597 9.38773 19.9312 9.81572 18.9829C10.2437 18.0347 10.8686 17.1883 11.6488 16.5001C10.5316 15.5148 9.74095 14.2127 9.38205 12.767C9.02315 11.3212 9.11303 9.80052 9.63973 8.40714C10.1664 7.01377 11.105 5.81383 12.3304 4.96701C13.5559 4.1202 15.0102 3.66666 16.4998 3.66675H27.4998ZM20.1665 29.3334H16.4998C15.7746 29.3334 15.0657 29.5485 14.4627 29.9514C13.8597 30.3543 13.3898 30.9269 13.1122 31.5969C12.8347 32.2669 12.7621 33.0041 12.9036 33.7154C13.0451 34.4267 13.3943 35.08 13.9071 35.5928C14.4199 36.1056 15.0732 36.4548 15.7845 36.5963C16.4957 36.7378 17.233 36.6652 17.903 36.3876C18.573 36.1101 19.1456 35.6402 19.5485 35.0372C19.9514 34.4342 20.1665 33.7253 20.1665 33.0001V29.3334ZM20.1665 18.3334H16.4998C15.5273 18.3334 14.5947 18.7197 13.9071 19.4074C13.2194 20.095 12.8331 21.0276 12.8331 22.0001C12.8331 22.9725 13.2194 23.9052 13.9071 24.5928C14.5947 25.2804 15.5273 25.6667 16.4998 25.6667H20.1665V18.3334ZM27.4998 18.3334C26.5273 18.3334 25.5947 18.7197 24.9071 19.4074C24.2194 20.095 23.8331 21.0276 23.8331 22.0001C23.8331 22.9725 24.2194 23.9052 24.9071 24.5928C25.5947 25.2804 26.5273 25.6667 27.4998 25.6667C28.4723 25.6667 29.4049 25.2804 30.0925 24.5928C30.7802 23.9052 31.1665 22.9725 31.1665 22.0001C31.1665 21.0276 30.7802 20.095 30.0925 19.4074C29.4049 18.7197 28.4723 18.3334 27.4998 18.3334ZM27.4998 7.33341H23.8331V14.6667H27.4998C28.4513 14.671 29.3671 14.3052 30.0539 13.6467C30.7407 12.9882 31.1446 12.0885 31.1803 11.1377C31.216 10.1869 30.8807 9.25943 30.2452 8.55127C29.6098 7.8431 28.7239 7.40968 27.7748 7.34258L27.4998 7.33341ZM20.1665 7.33341H16.4998C15.5273 7.33341 14.5947 7.71972 13.9071 8.40736C13.2194 9.09499 12.8331 10.0276 12.8331 11.0001C12.8331 11.9725 13.2194 12.9052 13.9071 13.5928C14.5947 14.2804 15.5273 14.6667 16.4998 14.6667H20.1665V7.33341Z" fill="#AC36A6" fill-opacity="0.93"/>
</svg>
