<svg width="44" height="44" viewBox="0 0 44 44" fill="none" xmlns="http://www.w3.org/2000/svg">
<path d="M40.4862 9.20873L23.8707 0.553562C23.1653 0.190737 22.3834 0.00146484 21.5901 0.00146484C20.7968 0.00146484 20.0149 0.190737 19.3094 0.553562L3.51524 8.77973C2.89944 9.09892 2.38343 9.58154 2.02381 10.1747C1.66419 10.7678 1.47486 11.4484 1.47657 12.1421L1.48757 31.8687C1.48757 33.2859 2.26857 34.5747 3.52624 35.2311L19.2746 43.4426C19.9712 43.8056 20.7651 43.9999 21.5571 43.9999V43.9962C22.3491 43.9962 23.1374 43.7982 23.8377 43.4352L40.4899 34.7544C41.1066 34.4362 41.6232 33.9534 41.9824 33.3596C42.3416 32.7659 42.5294 32.0842 42.5249 31.3902V12.5711C42.5266 11.8774 42.3373 11.1968 41.9777 10.6037C41.6181 10.0105 41.102 9.52792 40.4862 9.20873ZM40.8932 31.3976C40.8987 32.2061 40.4532 32.9504 39.7346 33.3226L23.0787 42.0052C22.6073 42.2492 22.0842 42.3766 21.5534 42.3766C21.0226 42.3766 20.4995 42.2492 20.0281 42.0052L4.27974 33.7919C3.92769 33.6094 3.63257 33.3337 3.42661 32.9949C3.22065 32.656 3.11179 32.2671 3.11191 31.8706L3.10091 12.1457C3.10091 11.3391 3.55191 10.5984 4.26691 10.2244L20.0611 1.9909C20.5339 1.7492 21.0573 1.62317 21.5882 1.62317C22.1192 1.62317 22.6426 1.7492 23.1154 1.9909L39.7309 10.6534C40.4459 11.0292 40.8932 11.7681 40.8932 12.5747V31.3976ZM8.55507 16.8666V18.8612L18.0774 17.3066V14.5822L8.55507 16.8666ZM16.0919 15.8766L17.1992 15.6346V16.6466L16.0919 16.8409V15.8766ZM9.75774 17.2699L14.4327 16.2396V17.1452L9.75774 17.9886V17.2699ZM18.0829 29.6266V26.9022L8.55874 25.3439V27.3386L18.0829 29.6266ZM14.4419 27.9692L9.76141 26.9389V26.2147L14.4419 27.0581V27.9692ZM17.2029 28.5742L16.0992 28.3322V27.3679L17.2029 27.5622V28.5742ZM38.4384 12.3914L34.1667 10.1657L30.7696 11.4381V8.39656L25.0991 5.43756C24.0164 4.8715 22.8127 4.57585 21.591 4.57585C20.3692 4.57585 19.1656 4.8715 18.0829 5.43756L5.56124 11.9661C5.47416 12.012 5.401 12.0804 5.34941 12.1643C5.29781 12.2481 5.26966 12.3443 5.26791 12.4427L5.28074 31.5112C5.28074 31.7129 5.39074 31.8962 5.57407 31.9879L18.0499 38.4907C20.2499 39.6384 22.8661 39.6384 25.0661 38.4907L30.7494 35.5317V32.4884L34.1447 33.7607L38.4494 31.5149C38.537 31.4687 38.6105 31.3996 38.6622 31.3151C38.7138 31.2305 38.7416 31.1336 38.7427 31.0346L38.7317 12.8699C38.732 12.771 38.7047 12.674 38.6529 12.5898C38.6011 12.5056 38.5268 12.4375 38.4384 12.3932V12.3914ZM8.06374 19.9301V16.0416L18.2222 13.3026C18.2845 13.2857 18.3497 13.2834 18.4129 13.2957C18.4762 13.3081 18.5358 13.3347 18.5871 13.3737C18.6384 13.4126 18.6802 13.4628 18.7091 13.5204C18.738 13.578 18.7533 13.6415 18.7539 13.7059V18.0216C18.7539 18.3956 18.4752 18.7182 18.1012 18.7586L8.06374 19.9301ZM18.1049 25.4484C18.2855 25.4686 18.4523 25.5545 18.5736 25.6897C18.695 25.8249 18.7624 26 18.7631 26.1817V30.4992C18.7625 30.5637 18.7472 30.6271 18.7183 30.6847C18.6893 30.7423 18.6476 30.7925 18.5963 30.8314C18.5449 30.8704 18.4854 30.897 18.4221 30.9094C18.3589 30.9217 18.2936 30.9194 18.2314 30.9026L8.07107 28.1636V24.2769L18.1049 25.4484ZM23.8561 38.2121C23.8561 38.2121 24.6407 37.0901 24.7361 35.0221V26.8032C24.7361 26.8032 24.8131 23.7232 22.2904 22.0347C24.8131 20.3481 24.7397 17.2681 24.7397 17.2681V9.34256C24.7397 7.01056 23.8451 5.72173 23.8451 5.72173L29.9079 8.88423V18.1627C29.9079 18.3021 30.0179 18.4194 30.1572 18.4304L34.0806 18.7127C34.1179 18.7152 34.1553 18.7101 34.1906 18.6976C34.2259 18.6851 34.2582 18.6656 34.2857 18.6402C34.3131 18.6148 34.3351 18.5841 34.3503 18.5499C34.3654 18.5157 34.3735 18.4788 34.3739 18.4414V11.2199L37.9801 13.0899V30.8439L34.3757 32.7249V24.9387C34.3753 24.9013 34.3673 24.8644 34.3521 24.8302C34.3369 24.796 34.315 24.7653 34.2875 24.7399C34.26 24.7145 34.2277 24.695 34.1924 24.6825C34.1572 24.67 34.1197 24.6649 34.0824 24.6674L30.1591 24.9534C30.091 24.9593 30.0275 24.9904 29.9811 25.0406C29.9347 25.0907 29.9086 25.1564 29.9079 25.2247V35.0624L23.8579 38.2157L23.8561 38.2121Z" fill="#AC36A6" fill-opacity="0.93"/>
</svg>
