<svg width="162" height="67" viewBox="0 0 162 67" fill="none" xmlns="http://www.w3.org/2000/svg">
<foreignObject x="-15" y="-15" width="192" height="97"><div xmlns="http://www.w3.org/1999/xhtml" style="backdrop-filter:blur(7.5px);clip-path:url(#bgblur_0_501_883_clip_path);height:100%;width:100%"></div></foreignObject><rect data-figma-bg-blur-radius="15" width="162" height="67" rx="5" fill="#D9D9D9" fill-opacity="0.6"/>
<path d="M16.6581 24.9355L18.2452 16.6774L19.3419 16.3806L17.7419 24.6387L16.6581 24.9355ZM12.4903 24.4839L12.5935 23.9548L19.6774 21.9806L19.5871 22.5097L12.4903 24.4839ZM13.6645 25.7742L15.2516 17.5161L16.3484 17.2065L14.7484 25.4774L13.6645 25.7742ZM13.2903 20.3548L13.3806 19.8387L20.4774 17.8645L20.3742 18.3806L13.2903 20.3548ZM25.1438 25V24.4968C25.5911 24.4796 25.9222 24.4452 26.1373 24.3935C26.361 24.3333 26.5072 24.2301 26.576 24.0839C26.6448 23.929 26.6792 23.6968 26.6792 23.3871V17.4774C26.6792 17.1677 26.6448 16.9398 26.576 16.7935C26.5072 16.6387 26.361 16.5312 26.1373 16.471C25.9222 16.4108 25.5911 16.3763 25.1438 16.3677V15.8645C26.0556 15.8903 27.5093 15.9032 29.505 15.9032C29.8147 15.9032 30.1201 15.9032 30.4212 15.9032C30.7308 15.9032 31.0276 15.8989 31.3115 15.8903C31.604 15.8817 31.8706 15.8731 32.1115 15.8645C32.1115 16.3376 32.1287 16.8022 32.1631 17.2581C32.2061 17.714 32.2663 18.157 32.3438 18.5871H31.8147C31.6943 18.0108 31.5524 17.5677 31.3889 17.2581C31.2341 16.9398 31.0319 16.7204 30.7825 16.6C30.533 16.471 30.2147 16.4065 29.8276 16.4065H27.8792V23.3871C27.8792 23.7054 27.9222 23.9419 28.0083 24.0968C28.0943 24.243 28.2792 24.3419 28.5631 24.3935C28.8556 24.4452 29.2986 24.4796 29.8921 24.4968V25C29.6427 24.9914 29.2943 24.9828 28.847 24.9742C28.4083 24.9656 27.8921 24.9613 27.2986 24.9613C26.8169 24.9613 26.3954 24.9656 26.0341 24.9742C25.6728 24.9742 25.376 24.9828 25.1438 25ZM27.4663 20.7806V20.2903H29.905V20.7806H27.4663ZM30.3179 22.6903C30.2749 22.2 30.2061 21.8172 30.1115 21.5419C30.0255 21.2667 29.8878 21.0731 29.6986 20.9613C29.5093 20.8409 29.2556 20.7806 28.9373 20.7806V20.2903C29.3846 20.2903 29.7029 20.1656 29.8921 19.9161C30.09 19.6667 30.219 19.2409 30.2792 18.6387H30.7179C30.6835 19.1462 30.6663 19.5333 30.6663 19.8C30.6749 20.0667 30.6792 20.3118 30.6792 20.5355C30.6792 20.7161 30.6792 20.9011 30.6792 21.0903C30.6878 21.271 30.6964 21.486 30.705 21.7355C30.7222 21.9849 30.7438 22.3032 30.7696 22.6903H30.3179ZM33.4747 25V24.4968C34.0252 24.4882 34.408 24.4194 34.6231 24.2903C34.8467 24.1613 34.9586 23.9204 34.9586 23.5677V19.9935C34.9586 19.5978 34.851 19.314 34.636 19.1419C34.4209 18.9699 34.0338 18.8753 33.4747 18.8581V18.3548C33.6467 18.3634 33.8231 18.372 34.0037 18.3806C34.193 18.3892 34.3822 18.3935 34.5715 18.3935C34.8639 18.3935 35.1392 18.3806 35.3973 18.3548C35.6639 18.3204 35.9048 18.2731 36.1199 18.2129V23.5677C36.1199 23.9204 36.2274 24.1613 36.4424 24.2903C36.6661 24.4194 37.0532 24.4882 37.6037 24.4968V25C37.4747 24.9914 37.2941 24.9871 37.0618 24.9871C36.8381 24.9785 36.593 24.9699 36.3263 24.9613C36.0596 24.9527 35.793 24.9484 35.5263 24.9484C35.1392 24.9484 34.7478 24.957 34.3521 24.9742C33.965 24.9828 33.6725 24.9914 33.4747 25ZM35.5005 16.8065C35.2682 16.8065 35.0661 16.7247 34.8941 16.5613C34.7306 16.3892 34.6489 16.1871 34.6489 15.9548C34.6489 15.7226 34.7306 15.5247 34.8941 15.3613C35.0661 15.1892 35.2682 15.1032 35.5005 15.1032C35.7328 15.1032 35.9306 15.1892 36.0941 15.3613C36.2575 15.5247 36.3392 15.7226 36.3392 15.9548C36.3392 16.1871 36.2575 16.3892 36.0941 16.5613C35.9306 16.7247 35.7328 16.8065 35.5005 16.8065ZM41.2095 28.0839C40.3665 28.0839 39.6955 27.929 39.1966 27.6194C38.7062 27.3097 38.4611 26.8968 38.4611 26.3806C38.4611 25.9677 38.6073 25.6022 38.8998 25.2839C39.1923 24.9656 39.6267 24.6946 40.203 24.471L40.5643 24.7161C40.2718 24.8366 40.0353 25.0301 39.8546 25.2968C39.6826 25.572 39.5966 25.8731 39.5966 26.2C39.5966 26.6387 39.7557 26.9785 40.074 27.2194C40.3923 27.4688 40.8353 27.5935 41.403 27.5935C41.8589 27.5935 42.2589 27.5161 42.603 27.3613C42.9557 27.2065 43.231 26.9957 43.4288 26.729C43.6353 26.4624 43.7385 26.157 43.7385 25.8129C43.7385 25.4946 43.6396 25.2538 43.4417 25.0903C43.2525 24.9355 42.96 24.8581 42.5643 24.8581H41.2611C40.745 24.8581 40.3321 24.7634 40.0224 24.5742C39.7213 24.3763 39.5708 24.1097 39.5708 23.7742C39.5708 23.5247 39.6568 23.2925 39.8288 23.0774C40.0095 22.8624 40.2761 22.6602 40.6288 22.471L41.0675 22.5355C40.8783 22.6473 40.7364 22.7634 40.6417 22.8839C40.5557 23.0043 40.5127 23.1376 40.5127 23.2839C40.5127 23.4473 40.5815 23.572 40.7192 23.6581C40.8568 23.7441 41.0546 23.7871 41.3127 23.7871H42.7708C43.4417 23.7871 43.9536 23.929 44.3063 24.2129C44.6675 24.4882 44.8482 24.8925 44.8482 25.4258C44.8482 25.9333 44.689 26.3892 44.3708 26.7935C44.0611 27.1978 43.631 27.5118 43.0804 27.7355C42.5385 27.9677 41.9149 28.0839 41.2095 28.0839ZM41.3256 22.6C40.5514 22.6 39.945 22.4065 39.5063 22.0194C39.0675 21.6237 38.8482 21.0817 38.8482 20.3935C38.8482 19.6968 39.0675 19.1548 39.5063 18.7677C39.945 18.372 40.5471 18.1742 41.3127 18.1742C42.0869 18.1742 42.6933 18.372 43.1321 18.7677C43.5708 19.1548 43.7901 19.6968 43.7901 20.3935C43.7901 21.0817 43.5708 21.6237 43.1321 22.0194C42.6933 22.4065 42.0912 22.6 41.3256 22.6ZM41.3256 22.1226C41.7471 22.1226 42.0611 21.9806 42.2675 21.6968C42.474 21.4129 42.5772 20.9785 42.5772 20.3935C42.5772 19.8 42.474 19.3613 42.2675 19.0774C42.0611 18.7935 41.7471 18.6516 41.3256 18.6516C40.8955 18.6516 40.5772 18.7935 40.3708 19.0774C40.1643 19.3613 40.0611 19.8 40.0611 20.3935C40.0611 20.9785 40.1643 21.4129 40.3708 21.6968C40.5772 21.9806 40.8955 22.1226 41.3256 22.1226ZM44.9772 19.8903C44.8052 19.8903 44.6804 19.8387 44.603 19.7355C44.5256 19.6237 44.4654 19.4946 44.4224 19.3484C44.388 19.2022 44.3493 19.0774 44.3063 18.9742C44.2632 18.8624 44.1987 18.8065 44.1127 18.8065C44.0611 18.8065 43.9837 18.8366 43.8804 18.8968C43.7772 18.9484 43.674 19.0258 43.5708 19.129C43.4675 19.2237 43.3729 19.3398 43.2869 19.4774L43.0675 19.1419C43.2396 18.8667 43.4804 18.6387 43.7901 18.4581C44.0998 18.2688 44.4052 18.1742 44.7062 18.1742C44.9729 18.1742 45.1794 18.2559 45.3256 18.4194C45.4804 18.5742 45.5579 18.7978 45.5579 19.0903C45.5579 19.3398 45.5062 19.5376 45.403 19.6839C45.2998 19.8215 45.1579 19.8903 44.9772 19.8903ZM55.3216 25V24.4968C55.6915 24.4882 55.9452 24.4194 56.0829 24.2903C56.2205 24.1527 56.2893 23.9118 56.2893 23.5677V20.5742C56.2893 19.9978 56.1818 19.5634 55.9667 19.271C55.7603 18.9785 55.4463 18.8323 55.0248 18.8323C54.6549 18.8323 54.3065 18.9441 53.9796 19.1677C53.6614 19.3828 53.3818 19.7183 53.1409 20.1742L53.0764 19.7484C53.3173 19.1978 53.6442 18.7978 54.0571 18.5484C54.4786 18.2989 54.9345 18.1742 55.4248 18.1742C56.07 18.1742 56.5689 18.3892 56.9216 18.8194C57.2743 19.2495 57.4506 19.8559 57.4506 20.6387V23.5677C57.4506 23.9118 57.5581 24.1527 57.7732 24.2903C57.9882 24.4194 58.3753 24.4882 58.9345 24.4968V25C58.8054 24.9914 58.6248 24.9871 58.3925 24.9871C58.1689 24.9785 57.9237 24.9699 57.6571 24.9613C57.3904 24.9527 57.1323 24.9484 56.8829 24.9484C56.5818 24.9484 56.2807 24.957 55.9796 24.9742C55.6872 24.9828 55.4678 24.9914 55.3216 25ZM46.5216 25V24.4968C47.0807 24.4882 47.4678 24.4194 47.6829 24.2903C47.8979 24.1527 48.0054 23.9118 48.0054 23.5677V19.9935C48.0054 19.5892 47.8936 19.3054 47.67 19.1419C47.4463 18.9699 47.0635 18.8753 46.5216 18.8581V18.3548C46.6936 18.3634 46.87 18.372 47.0506 18.3806C47.2312 18.3892 47.4205 18.3935 47.6183 18.3935C47.9022 18.3935 48.1732 18.3806 48.4312 18.3548C48.6893 18.3204 48.9345 18.2731 49.1667 18.2129V23.5677C49.1667 23.9118 49.2356 24.1527 49.3732 24.2903C49.5194 24.4194 49.7732 24.4882 50.1345 24.4968V25C49.9452 24.9914 49.7087 24.9828 49.4248 24.9742C49.1495 24.957 48.8614 24.9484 48.5603 24.9484C48.2076 24.9484 47.842 24.957 47.4635 24.9742C47.0936 24.9828 46.7796 24.9914 46.5216 25ZM51.1667 25V24.4968C51.5452 24.4882 51.8033 24.4194 51.9409 24.2903C52.0786 24.1527 52.1474 23.9118 52.1474 23.5677V20.5742C52.1474 19.9978 52.0399 19.5634 51.8248 19.271C51.6097 18.9785 51.2915 18.8323 50.87 18.8323C50.5173 18.8323 50.1904 18.9355 49.8893 19.1419C49.5882 19.3398 49.3216 19.6323 49.0893 20.0194L49.1022 19.4516C49.3087 19.0559 49.6011 18.7462 49.9796 18.5226C50.3667 18.2903 50.7968 18.1742 51.27 18.1742C51.9237 18.1742 52.4269 18.3892 52.7796 18.8194C53.1323 19.2409 53.3087 19.8473 53.3087 20.6387V23.5677C53.3087 23.9118 53.3775 24.1527 53.5151 24.2903C53.6528 24.4194 53.9065 24.4882 54.2764 24.4968V25C54.1302 24.9914 53.9065 24.9828 53.6054 24.9742C53.313 24.957 53.0205 24.9484 52.728 24.9484C52.4269 24.9484 52.1302 24.957 51.8377 24.9742C51.5452 24.9828 51.3216 24.9914 51.1667 25ZM62.0017 25.1806C61.4168 25.1806 60.9523 25.0301 60.6082 24.729C60.2641 24.4194 60.092 24.0022 60.092 23.4774C60.092 23.0817 60.1867 22.7591 60.3759 22.5097C60.5738 22.2602 60.8232 22.0624 61.1243 21.9161C61.434 21.7613 61.7609 21.6366 62.1049 21.5419C62.449 21.4473 62.7716 21.3613 63.0727 21.2839C63.3824 21.1978 63.6318 21.0989 63.8211 20.9871C64.0189 20.8753 64.1178 20.7247 64.1178 20.5355V19.929C64.1178 19.5161 63.9931 19.2065 63.7436 19C63.5028 18.7935 63.1415 18.6903 62.6598 18.6903C62.3071 18.6903 62.0103 18.7376 61.7695 18.8323C61.5286 18.9269 61.4082 19.0473 61.4082 19.1935C61.4082 19.271 61.434 19.357 61.4856 19.4516C61.5458 19.5376 61.6017 19.6366 61.6533 19.7484C61.7135 19.8516 61.7436 19.9634 61.7436 20.0839C61.7436 20.2473 61.6834 20.3806 61.563 20.4839C61.4512 20.5871 61.3006 20.6387 61.1114 20.6387C60.8791 20.6387 60.6899 20.5656 60.5436 20.4194C60.406 20.2645 60.3372 20.0624 60.3372 19.8129C60.3372 19.5032 60.4576 19.228 60.6985 18.9871C60.9393 18.7376 61.2619 18.5398 61.6662 18.3935C62.0705 18.2473 62.5264 18.1742 63.034 18.1742C63.5587 18.1742 63.9845 18.2559 64.3114 18.4194C64.6469 18.5828 64.892 18.8366 65.0469 19.1806C65.2017 19.5247 65.2791 19.9677 65.2791 20.5097V23.929C65.2791 24.1355 65.3135 24.2903 65.3824 24.3935C65.4598 24.4882 65.5716 24.5355 65.7178 24.5355C65.8727 24.5355 66.0232 24.4968 66.1695 24.4194C66.3243 24.3419 66.4705 24.2516 66.6082 24.1484L66.8533 24.5613C66.6297 24.7591 66.3974 24.9097 66.1566 25.0129C65.9243 25.1247 65.649 25.1806 65.3307 25.1806C64.5221 25.1806 64.1178 24.7978 64.1178 24.0323C63.8684 24.4108 63.563 24.6989 63.2017 24.8968C62.849 25.086 62.449 25.1806 62.0017 25.1806ZM62.4404 24.4194C62.7673 24.4194 63.0727 24.3376 63.3566 24.1742C63.649 24.0108 63.9028 23.7785 64.1178 23.4774V21.2065C64.0318 21.3441 63.877 21.4602 63.6533 21.5548C63.4383 21.6409 63.1974 21.7312 62.9307 21.8258C62.6641 21.9118 62.406 22.0151 62.1566 22.1355C61.9157 22.2559 61.7135 22.4108 61.5501 22.6C61.3867 22.7892 61.3049 23.0387 61.3049 23.3484C61.3049 23.6839 61.4039 23.9462 61.6017 24.1355C61.8082 24.3247 62.0877 24.4194 62.4404 24.4194ZM75.0331 24.9355L76.6202 16.6774L77.7169 16.3806L76.1169 24.6387L75.0331 24.9355ZM70.8653 24.4839L70.9685 23.9548L78.0524 21.9806L77.9621 22.5097L70.8653 24.4839ZM72.0395 25.7742L73.6266 17.5161L74.7234 17.2065L73.1234 25.4774L72.0395 25.7742ZM71.6653 20.3548L71.7556 19.8387L78.8524 17.8645L78.7492 18.3806L71.6653 20.3548ZM83.7308 25.1806C83.2405 25.1806 82.819 25.129 82.4663 25.0258C82.1222 24.9226 81.8384 24.8194 81.6147 24.7161C81.3997 24.6129 81.2233 24.5613 81.0857 24.5613C80.9825 24.5613 80.8964 24.6086 80.8276 24.7032C80.7674 24.7978 80.7201 24.9355 80.6857 25.1161H80.1696C80.1868 24.9269 80.1997 24.6989 80.2083 24.4323C80.2169 24.157 80.2212 23.8086 80.2212 23.3871C80.2298 22.957 80.2341 22.4237 80.2341 21.7871H80.7502C80.8104 22.6731 81.09 23.3785 81.5889 23.9032C82.0878 24.4194 82.7373 24.6774 83.5373 24.6774C84.1222 24.6774 84.5911 24.5269 84.9437 24.2258C85.2964 23.9161 85.4728 23.5032 85.4728 22.9871C85.4728 22.6688 85.3954 22.3849 85.2405 22.1355C85.0943 21.886 84.8534 21.6581 84.5179 21.4516C84.1911 21.2452 83.7567 21.043 83.2147 20.8452C82.5437 20.6043 81.9975 20.3462 81.576 20.071C81.1631 19.7957 80.8577 19.4903 80.6599 19.1548C80.4706 18.8108 80.376 18.428 80.376 18.0065C80.376 17.5333 80.4835 17.1247 80.6986 16.7806C80.9136 16.428 81.219 16.157 81.6147 15.9677C82.0104 15.7785 82.4749 15.6839 83.0083 15.6839C83.4642 15.6839 83.8384 15.7355 84.1308 15.8387C84.4319 15.9333 84.6771 16.0323 84.8663 16.1355C85.0642 16.2387 85.2362 16.2903 85.3825 16.2903C85.4857 16.2903 85.5717 16.2473 85.6405 16.1613C85.7093 16.0667 85.7567 15.929 85.7825 15.7484H86.3115C86.2943 15.9376 86.2771 16.1484 86.2599 16.3806C86.2513 16.6129 86.2427 16.9054 86.2341 17.2581C86.2341 17.6108 86.2341 18.0581 86.2341 18.6H85.7179C85.6491 17.8688 85.3868 17.2839 84.9308 16.8452C84.4835 16.4065 83.9115 16.1871 83.2147 16.1871C82.6642 16.1871 82.2384 16.3204 81.9373 16.5871C81.6362 16.8538 81.4857 17.2151 81.4857 17.671C81.4857 17.9806 81.5631 18.2559 81.7179 18.4968C81.8814 18.7376 82.1394 18.9656 82.4921 19.1806C82.8534 19.3871 83.3308 19.6022 83.9244 19.8258C84.9136 20.1871 85.6233 20.5914 86.0534 21.0387C86.4835 21.4774 86.6986 22.0237 86.6986 22.6774C86.6986 23.443 86.4319 24.0538 85.8986 24.5097C85.3653 24.957 84.6427 25.1806 83.7308 25.1806ZM88.1996 25V24.4968C88.7673 24.4796 89.1544 24.4065 89.3609 24.2774C89.5759 24.1398 89.6835 23.9032 89.6835 23.5677V16.6645C89.6835 16.2602 89.5716 15.9763 89.348 15.8129C89.1329 15.6409 88.7501 15.5462 88.1996 15.529V15.0258C88.3716 15.0344 88.548 15.043 88.7286 15.0516C88.9179 15.0602 89.1071 15.0645 89.2964 15.0645C89.8641 15.0645 90.3802 15.0043 90.8448 14.8839V23.5677C90.8448 23.9032 90.9136 24.1398 91.0512 24.2774C91.1974 24.4065 91.4641 24.4796 91.8512 24.4968V25C91.6878 24.9914 91.4555 24.9828 91.1544 24.9742C90.862 24.957 90.5609 24.9484 90.2512 24.9484C89.8813 24.9484 89.4985 24.957 89.1028 24.9742C88.7071 24.9828 88.406 24.9914 88.1996 25ZM93.0254 25V24.4968C93.4039 24.4538 93.6319 24.3763 93.7093 24.2645C93.7953 24.1527 93.7738 23.9677 93.6448 23.7097L93.077 22.5871C92.905 22.2344 92.72 21.9935 92.5222 21.8645C92.3243 21.7355 92.0577 21.671 91.7222 21.671H90.6254V21.1677H91.8512C92.1351 21.1677 92.3716 21.1247 92.5609 21.0387C92.7501 20.9527 92.9308 20.8022 93.1028 20.5871L93.4383 20.1097C93.5845 19.9204 93.6749 19.7527 93.7093 19.6065C93.7437 19.4602 93.7222 19.3355 93.6448 19.2323C93.5759 19.129 93.4426 19.0473 93.2448 18.9871C93.0555 18.9269 92.8017 18.8882 92.4835 18.871V18.3677C92.7157 18.3763 92.991 18.3849 93.3093 18.3935C93.6276 18.4022 93.9759 18.4065 94.3544 18.4065C94.5953 18.4065 94.8147 18.4065 95.0125 18.4065C95.219 18.3978 95.4039 18.3935 95.5673 18.3935C95.7394 18.3849 95.8899 18.3763 96.019 18.3677V18.871C95.7007 18.9312 95.4297 19.0086 95.206 19.1032C94.991 19.1892 94.8017 19.3054 94.6383 19.4516C94.4749 19.5892 94.3071 19.7785 94.1351 20.0194L93.1415 21.3871L92.806 21.0903C93.0297 21.1247 93.219 21.1849 93.3738 21.271C93.5372 21.357 93.6878 21.4903 93.8254 21.671C93.963 21.843 94.1093 22.0839 94.2641 22.3935L94.7931 23.4129C94.9394 23.6882 95.0856 23.9032 95.2319 24.0581C95.3781 24.2129 95.5544 24.3204 95.7609 24.3806C95.9673 24.4323 96.2383 24.471 96.5738 24.4968V25C96.2383 24.9914 95.963 24.9871 95.748 24.9871C95.5415 24.9785 95.3609 24.9742 95.206 24.9742C95.0512 24.9656 94.9007 24.9613 94.7544 24.9613C94.5136 24.9613 94.2727 24.9656 94.0319 24.9742C93.7996 24.9742 93.4641 24.9828 93.0254 25ZM100.547 25.1806C99.9275 25.1806 99.3899 25.043 98.934 24.7677C98.4781 24.4839 98.1254 24.0796 97.8759 23.5548C97.6264 23.0301 97.5017 22.4108 97.5017 21.6968C97.5017 20.9828 97.6264 20.3634 97.8759 19.8387C98.1254 19.3054 98.4824 18.8968 98.9469 18.6129C99.42 18.3204 99.9791 18.1742 100.624 18.1742C101.175 18.1742 101.652 18.286 102.057 18.5097C102.469 18.7247 102.783 19.0645 102.998 19.529C103.222 19.9935 103.325 20.5957 103.308 21.3355H98.263L98.2501 20.8452H102.069C102.087 20.4323 102.039 20.0624 101.928 19.7355C101.824 19.4086 101.657 19.1505 101.424 18.9613C101.201 18.7634 100.912 18.6645 100.56 18.6645C100.112 18.6645 99.7168 18.8538 99.3727 19.2323C99.0286 19.6022 98.8264 20.1785 98.7662 20.9613L98.7791 21C98.7705 21.0946 98.7619 21.1935 98.7533 21.2968C98.7533 21.4 98.7533 21.5075 98.7533 21.6194C98.7533 22.5398 98.934 23.2495 99.2953 23.7484C99.6566 24.2473 100.173 24.4968 100.844 24.4968C101.274 24.4968 101.661 24.3892 102.005 24.1742C102.349 23.9591 102.629 23.628 102.844 23.1806L103.308 23.4516C103.085 23.9849 102.732 24.4065 102.25 24.7161C101.768 25.0258 101.201 25.1806 100.547 25.1806ZM107.797 25.1806C107.16 25.1806 106.683 24.9957 106.365 24.6258C106.046 24.2473 105.887 23.6796 105.887 22.9226V18.871H104.326V18.3677H105.887V16.3935C106.111 16.3763 106.317 16.3548 106.507 16.329C106.705 16.3032 106.885 16.2645 107.049 16.2129V18.3677H109.358V18.871H107.049V23.271C107.049 23.6925 107.13 24.0065 107.294 24.2129C107.457 24.4108 107.711 24.5097 108.055 24.5097C108.382 24.5097 108.649 24.4065 108.855 24.2C109.061 23.9935 109.216 23.6925 109.32 23.2968L109.72 23.4C109.591 24.0022 109.371 24.4495 109.061 24.7419C108.752 25.0344 108.33 25.1806 107.797 25.1806ZM113.828 25.1806C113.209 25.1806 112.671 25.043 112.215 24.7677C111.759 24.4839 111.407 24.0839 111.157 23.5677C110.908 23.043 110.783 22.4237 110.783 21.7097C110.783 20.9871 110.912 20.3634 111.17 19.8387C111.428 19.3054 111.794 18.8968 112.267 18.6129C112.74 18.3204 113.295 18.1742 113.931 18.1742C114.404 18.1742 114.826 18.2473 115.196 18.3935C115.574 18.5398 115.871 18.7376 116.086 18.9871C116.301 19.2366 116.409 19.5247 116.409 19.8516C116.409 20.1355 116.323 20.3677 116.151 20.5484C115.987 20.729 115.772 20.8194 115.506 20.8194C115.29 20.8194 115.118 20.7634 114.989 20.6516C114.86 20.5312 114.796 20.3763 114.796 20.1871C114.796 20.0323 114.826 19.8989 114.886 19.7871C114.955 19.6667 115.024 19.5548 115.093 19.4516C115.161 19.3484 115.196 19.2495 115.196 19.1548C115.196 19.0086 115.097 18.8925 114.899 18.8065C114.71 18.7118 114.46 18.6645 114.151 18.6645C113.463 18.6645 112.938 18.914 112.577 19.4129C112.215 19.9118 112.035 20.6344 112.035 21.5806C112.035 22.5183 112.211 23.2409 112.564 23.7484C112.925 24.2473 113.441 24.4968 114.112 24.4968C114.542 24.4968 114.921 24.3892 115.247 24.1742C115.574 23.9505 115.841 23.6194 116.047 23.1806L116.512 23.4516C116.297 23.9935 115.953 24.4194 115.48 24.729C115.015 25.0301 114.465 25.1806 113.828 25.1806ZM122.26 25V24.4968C122.648 24.4882 122.91 24.4194 123.048 24.2903C123.194 24.1527 123.267 23.9118 123.267 23.5677V20.5742C123.267 19.9978 123.155 19.5634 122.931 19.271C122.708 18.9785 122.372 18.8323 121.925 18.8323C121.564 18.8323 121.224 18.9355 120.906 19.1419C120.587 19.3398 120.312 19.6323 120.08 20.0194L120.093 19.4516C120.308 19.0559 120.613 18.7462 121.009 18.5226C121.413 18.2903 121.856 18.1742 122.338 18.1742C123.009 18.1742 123.525 18.3892 123.886 18.8194C124.248 19.2409 124.428 19.8473 124.428 20.6387V23.5677C124.428 23.9118 124.536 24.1527 124.751 24.2903C124.966 24.4194 125.353 24.4882 125.912 24.4968V25C125.783 24.9914 125.602 24.9871 125.37 24.9871C125.147 24.9785 124.901 24.9699 124.635 24.9613C124.368 24.9527 124.11 24.9484 123.86 24.9484C123.551 24.9484 123.245 24.957 122.944 24.9742C122.643 24.9828 122.415 24.9914 122.26 25ZM117.512 25V24.4968C118.071 24.4882 118.458 24.4194 118.673 24.2903C118.888 24.1527 118.996 23.9118 118.996 23.5677V16.6774C118.996 16.2645 118.884 15.9763 118.66 15.8129C118.445 15.6409 118.063 15.5505 117.512 15.5419V15.0258C117.684 15.0344 117.86 15.043 118.041 15.0516C118.23 15.0602 118.42 15.0645 118.609 15.0645C118.893 15.0645 119.164 15.0516 119.422 15.0258C119.68 14.9914 119.925 14.9441 120.157 14.8839V23.5677C120.157 23.9118 120.226 24.1527 120.364 24.2903C120.51 24.4194 120.777 24.4882 121.164 24.4968V25C120.992 24.9914 120.755 24.9828 120.454 24.9742C120.162 24.957 119.86 24.9484 119.551 24.9484C119.198 24.9484 118.828 24.957 118.441 24.9742C118.063 24.9828 117.753 24.9914 117.512 25Z" fill="black" fill-opacity="0.65"/>
<path d="M16.6581 52.9355L18.2452 44.6774L19.3419 44.3806L17.7419 52.6387L16.6581 52.9355ZM12.4903 52.4839L12.5935 51.9548L19.6774 49.9806L19.5871 50.5097L12.4903 52.4839ZM13.6645 53.7742L15.2516 45.5161L16.3484 45.2065L14.7484 53.4774L13.6645 53.7742ZM13.2903 48.3548L13.3806 47.8387L20.4774 45.8645L20.3742 46.3806L13.2903 48.3548ZM25.1438 53V52.4968C25.5911 52.4796 25.9222 52.4452 26.1373 52.3935C26.361 52.3333 26.5072 52.2301 26.576 52.0839C26.6448 51.929 26.6792 51.6968 26.6792 51.3871V45.4774C26.6792 45.1677 26.6448 44.9398 26.576 44.7935C26.5072 44.6387 26.361 44.5312 26.1373 44.471C25.9222 44.4108 25.5911 44.3763 25.1438 44.3677V43.8645C25.3932 43.8731 25.6857 43.8817 26.0212 43.8903C26.3653 43.8903 26.7782 43.8903 27.2599 43.8903C27.5007 43.8903 27.7416 43.8903 27.9825 43.8903C28.2319 43.8817 28.4642 43.8774 28.6792 43.8774C28.8943 43.8688 29.0706 43.8645 29.2083 43.8645C30.8169 43.8645 32.0298 44.2344 32.847 44.9742C33.6642 45.714 34.0728 46.8022 34.0728 48.2387C34.0728 49.2452 33.8792 50.1054 33.4921 50.8194C33.105 51.5247 32.5416 52.0667 31.8018 52.4452C31.0706 52.8151 30.1846 53 29.1437 53C28.9287 53 28.6663 52.9957 28.3567 52.9871C28.047 52.9699 27.6857 52.9613 27.2728 52.9613C26.8599 52.9613 26.4642 52.9656 26.0857 52.9742C25.7158 52.9828 25.4018 52.9914 25.1438 53ZM29.0147 52.5226C30.3222 52.5226 31.2771 52.1957 31.8792 51.5419C32.4814 50.8796 32.7825 49.8387 32.7825 48.4194C32.7825 46.9828 32.4857 45.9462 31.8921 45.3097C31.2986 44.6731 30.3394 44.3548 29.0147 44.3548H27.8792V51.4129C27.8792 51.7312 27.905 51.9677 27.9567 52.1226C28.0169 52.2774 28.1287 52.3849 28.2921 52.4452C28.4556 52.4968 28.6964 52.5226 29.0147 52.5226ZM39 53.1806C38.3806 53.1806 37.843 53.043 37.3871 52.7677C36.9312 52.4839 36.5785 52.0796 36.329 51.5548C36.0796 51.0301 35.9548 50.4108 35.9548 49.6968C35.9548 48.9828 36.0796 48.3634 36.329 47.8387C36.5785 47.3054 36.9355 46.8968 37.4 46.6129C37.8731 46.3204 38.4323 46.1742 39.0774 46.1742C39.628 46.1742 40.1054 46.286 40.5097 46.5097C40.9226 46.7247 41.2366 47.0645 41.4516 47.529C41.6753 47.9935 41.7785 48.5957 41.7613 49.3355H36.7161L36.7032 48.8452H40.5226C40.5398 48.4323 40.4925 48.0624 40.3806 47.7355C40.2774 47.4086 40.1097 47.1505 39.8774 46.9613C39.6538 46.7634 39.3656 46.6645 39.0129 46.6645C38.5656 46.6645 38.1699 46.8538 37.8258 47.2323C37.4817 47.6022 37.2796 48.1785 37.2194 48.9613L37.2323 49C37.2237 49.0946 37.2151 49.1935 37.2065 49.2968C37.2065 49.4 37.2065 49.5075 37.2065 49.6194C37.2065 50.5398 37.3871 51.2495 37.7484 51.7484C38.1097 52.2473 38.6258 52.4968 39.2968 52.4968C39.7269 52.4968 40.114 52.3892 40.4581 52.1742C40.8022 51.9591 41.0817 51.628 41.2968 51.1806L41.7613 51.4516C41.5376 51.9849 41.1849 52.4065 40.7032 52.7161C40.2215 53.0258 39.6538 53.1806 39 53.1806ZM46.5938 53.1806C45.9744 53.1806 45.4368 53.043 44.9808 52.7677C44.5249 52.4839 44.1722 52.0796 43.9228 51.5548C43.6733 51.0301 43.5486 50.4108 43.5486 49.6968C43.5486 48.9828 43.6733 48.3634 43.9228 47.8387C44.1722 47.3054 44.5292 46.8968 44.9937 46.6129C45.4669 46.3204 46.026 46.1742 46.6712 46.1742C47.2217 46.1742 47.6991 46.286 48.1034 46.5097C48.5163 46.7247 48.8303 47.0645 49.0454 47.529C49.269 47.9935 49.3722 48.5957 49.355 49.3355H44.3099L44.297 48.8452H48.1163C48.1335 48.4323 48.0862 48.0624 47.9744 47.7355C47.8712 47.4086 47.7034 47.1505 47.4712 46.9613C47.2475 46.7634 46.9593 46.6645 46.6067 46.6645C46.1593 46.6645 45.7636 46.8538 45.4196 47.2323C45.0755 47.6022 44.8733 48.1785 44.8131 48.9613L44.826 49C44.8174 49.0946 44.8088 49.1935 44.8002 49.2968C44.8002 49.4 44.8002 49.5075 44.8002 49.6194C44.8002 50.5398 44.9808 51.2495 45.3421 51.7484C45.7034 52.2473 46.2196 52.4968 46.8905 52.4968C47.3206 52.4968 47.7077 52.3892 48.0518 52.1742C48.3959 51.9591 48.6755 51.628 48.8905 51.1806L49.355 51.4516C49.1314 51.9849 48.7787 52.4065 48.297 52.7161C47.8153 53.0258 47.2475 53.1806 46.5938 53.1806ZM50.4965 55.9806V55.4774C51.0556 55.4688 51.4427 55.3957 51.6578 55.2581C51.8728 55.129 51.9803 54.8925 51.9803 54.5484V47.9935C51.9803 47.5806 51.8685 47.2925 51.6449 47.129C51.4212 46.9656 51.0384 46.8753 50.4965 46.8581V46.3548C50.6599 46.3634 50.832 46.372 51.0126 46.3806C51.2018 46.3892 51.3911 46.3935 51.5803 46.3935C52.1653 46.3935 52.6857 46.3333 53.1416 46.2129V54.4839C53.1416 54.8452 53.275 55.0989 53.5416 55.2452C53.8169 55.3914 54.29 55.4688 54.961 55.4774V55.9806C54.8061 55.972 54.5954 55.9634 54.3287 55.9548C54.0707 55.9548 53.7868 55.9505 53.4771 55.9419C53.1674 55.9333 52.8664 55.929 52.5739 55.929C52.161 55.929 51.761 55.9333 51.3739 55.9419C50.9868 55.9591 50.6943 55.972 50.4965 55.9806ZM54.9352 53.1806C54.4621 53.1806 54.0535 53.086 53.7094 52.8968C53.3739 52.6989 53.1416 52.4409 53.0126 52.1226L53.09 51.671C53.2191 51.9548 53.4212 52.1828 53.6965 52.3548C53.9803 52.5183 54.3029 52.6 54.6642 52.6C55.3008 52.6 55.7911 52.3419 56.1352 51.8258C56.4793 51.3097 56.6513 50.5785 56.6513 49.6323C56.6513 48.7376 56.4965 48.0452 56.1868 47.5548C55.8857 47.0645 55.4513 46.8194 54.8836 46.8194C54.4879 46.8194 54.1137 46.9441 53.761 47.1935C53.4083 47.4344 53.1674 47.7441 53.0384 48.1226L52.9739 47.7484C53.1029 47.2839 53.3825 46.9054 53.8126 46.6129C54.2427 46.3204 54.7373 46.1742 55.2965 46.1742C55.8298 46.1742 56.29 46.3118 56.6771 46.5871C57.0728 46.8624 57.3739 47.2538 57.5803 47.7613C57.7954 48.2602 57.9029 48.8495 57.9029 49.529C57.9029 50.2688 57.7782 50.914 57.5287 51.4645C57.2793 52.0151 56.9309 52.4409 56.4836 52.7419C56.0449 53.0344 55.5287 53.1806 54.9352 53.1806ZM62.7403 53V52.4968C63.2995 52.4882 63.6866 52.4194 63.9016 52.2903C64.1167 52.1527 64.2242 51.9118 64.2242 51.5677V47.9935C64.2242 47.5892 64.1124 47.3054 63.8887 47.1419C63.6651 46.9699 63.2823 46.8753 62.7403 46.8581V46.3548C62.9124 46.3634 63.0887 46.372 63.2694 46.3806C63.45 46.3892 63.6392 46.3935 63.8371 46.3935C64.3876 46.3935 64.9038 46.3333 65.3855 46.2129V51.5032C65.3855 51.8645 65.5188 52.1183 65.7855 52.2645C66.0608 52.4108 66.5339 52.4882 67.2048 52.4968V53C67.05 52.9914 66.8392 52.9871 66.5726 52.9871C66.3145 52.9785 66.0306 52.9699 65.721 52.9613C65.4199 52.9527 65.1188 52.9484 64.8177 52.9484C64.4048 52.9484 64.0048 52.957 63.6177 52.9742C63.2306 52.9828 62.9382 52.9914 62.7403 53ZM67.8629 48.3935C67.6909 48.3935 67.5446 48.3419 67.4242 48.2387C67.3124 48.1355 67.2565 48.0065 67.2565 47.8516C67.2565 47.7312 67.278 47.628 67.321 47.5419C67.3726 47.4559 67.4199 47.3742 67.4629 47.2968C67.5059 47.2194 67.5274 47.1419 67.5274 47.0645C67.5274 46.8839 67.3941 46.7935 67.1274 46.7935C66.9124 46.7935 66.6844 46.8495 66.4435 46.9613C66.2027 47.0731 65.9833 47.2194 65.7855 47.4C65.5876 47.5806 65.4414 47.7828 65.3468 48.0065L65.3081 47.4645C65.5489 47.0516 65.85 46.7333 66.2113 46.5097C66.5812 46.286 66.9683 46.1742 67.3726 46.1742C67.7769 46.1742 68.0952 46.2903 68.3274 46.5226C68.5683 46.7462 68.6887 47.043 68.6887 47.4129C68.6887 47.7054 68.6113 47.9419 68.4565 48.1226C68.3102 48.3032 68.1124 48.3935 67.8629 48.3935ZM72.8594 53.1806C72.24 53.1806 71.7024 53.043 71.2465 52.7677C70.7906 52.4839 70.4379 52.0796 70.1884 51.5548C69.9389 51.0301 69.8142 50.4108 69.8142 49.6968C69.8142 48.9828 69.9389 48.3634 70.1884 47.8387C70.4379 47.3054 70.7949 46.8968 71.2594 46.6129C71.7325 46.3204 72.2916 46.1742 72.9368 46.1742C73.4873 46.1742 73.9648 46.286 74.3691 46.5097C74.782 46.7247 75.0959 47.0645 75.311 47.529C75.5346 47.9935 75.6379 48.5957 75.6207 49.3355H70.5755L70.5626 48.8452H74.382C74.3992 48.4323 74.3518 48.0624 74.24 47.7355C74.1368 47.4086 73.9691 47.1505 73.7368 46.9613C73.5131 46.7634 73.225 46.6645 72.8723 46.6645C72.425 46.6645 72.0293 46.8538 71.6852 47.2323C71.3411 47.6022 71.1389 48.1785 71.0787 48.9613L71.0916 49C71.083 49.0946 71.0744 49.1935 71.0658 49.2968C71.0658 49.4 71.0658 49.5075 71.0658 49.6194C71.0658 50.5398 71.2465 51.2495 71.6078 51.7484C71.9691 52.2473 72.4852 52.4968 73.1561 52.4968C73.5863 52.4968 73.9734 52.3892 74.3174 52.1742C74.6615 51.9591 74.9411 51.628 75.1561 51.1806L75.6207 51.4516C75.397 51.9849 75.0443 52.4065 74.5626 52.7161C74.0809 53.0258 73.5131 53.1806 72.8594 53.1806ZM80.2752 53.1806C79.9053 53.1806 79.5913 53.1376 79.3333 53.0516C79.0838 52.9742 78.8774 52.9011 78.7139 52.8323C78.5591 52.7548 78.4214 52.7161 78.301 52.7161C78.1118 52.7161 77.9698 52.8495 77.8752 53.1161H77.372C77.3978 52.9183 77.415 52.6989 77.4236 52.4581C77.4322 52.2086 77.4365 51.929 77.4365 51.6194C77.4365 51.3011 77.4365 50.9398 77.4365 50.5355H77.9268C78.0386 51.2581 78.2752 51.7957 78.6365 52.1484C79.0064 52.5011 79.501 52.6774 80.1204 52.6774C80.5849 52.6774 80.9419 52.5785 81.1913 52.3806C81.4408 52.1742 81.5655 51.8903 81.5655 51.529C81.5655 51.1849 81.4365 50.9097 81.1784 50.7032C80.929 50.4882 80.4903 50.2946 79.8623 50.1226C79.0795 49.9075 78.5032 49.628 78.1333 49.2839C77.772 48.9398 77.5913 48.5097 77.5913 47.9935C77.5913 47.4344 77.7763 46.9914 78.1462 46.6645C78.5161 46.3376 79.0064 46.1742 79.6171 46.1742C79.9526 46.1742 80.2365 46.2129 80.4688 46.2903C80.701 46.3677 80.8946 46.4495 81.0494 46.5355C81.2128 46.6129 81.3591 46.6516 81.4881 46.6516C81.5741 46.6516 81.6472 46.6215 81.7075 46.5613C81.7677 46.4925 81.8193 46.3892 81.8623 46.2516H82.3655C82.3483 46.4323 82.3354 46.6258 82.3268 46.8323C82.3182 47.0301 82.3096 47.2624 82.301 47.529C82.301 47.7871 82.3053 48.1011 82.3139 48.471H81.8107C81.7333 47.9204 81.5096 47.486 81.1397 47.1677C80.7698 46.8409 80.3182 46.6774 79.7849 46.6774C79.415 46.6774 79.1225 46.7634 78.9075 46.9355C78.701 47.1075 78.5978 47.357 78.5978 47.6839C78.5978 48.0194 78.7397 48.2989 79.0236 48.5226C79.3075 48.7462 79.7892 48.957 80.4688 49.1548C81.2171 49.3613 81.7548 49.6237 82.0817 49.9419C82.4171 50.2602 82.5849 50.6774 82.5849 51.1935C82.5849 51.8129 82.3784 52.2989 81.9655 52.6516C81.5612 53.0043 80.9978 53.1806 80.2752 53.1806ZM87.4844 53.1806C86.865 53.1806 86.3274 53.043 85.8715 52.7677C85.4156 52.4839 85.0629 52.0796 84.8134 51.5548C84.5639 51.0301 84.4392 50.4108 84.4392 49.6968C84.4392 48.9828 84.5639 48.3634 84.8134 47.8387C85.0629 47.3054 85.4199 46.8968 85.8844 46.6129C86.3575 46.3204 86.9166 46.1742 87.5618 46.1742C88.1123 46.1742 88.5898 46.286 88.9941 46.5097C89.407 46.7247 89.7209 47.0645 89.936 47.529C90.1596 47.9935 90.2629 48.5957 90.2457 49.3355H85.2005L85.1876 48.8452H89.007C89.0242 48.4323 88.9768 48.0624 88.865 47.7355C88.7618 47.4086 88.5941 47.1505 88.3618 46.9613C88.1381 46.7634 87.85 46.6645 87.4973 46.6645C87.05 46.6645 86.6543 46.8538 86.3102 47.2323C85.9661 47.6022 85.7639 48.1785 85.7037 48.9613L85.7166 49C85.708 49.0946 85.6994 49.1935 85.6908 49.2968C85.6908 49.4 85.6908 49.5075 85.6908 49.6194C85.6908 50.5398 85.8715 51.2495 86.2328 51.7484C86.5941 52.2473 87.1102 52.4968 87.7811 52.4968C88.2113 52.4968 88.5984 52.3892 88.9424 52.1742C89.2865 51.9591 89.5661 51.628 89.7811 51.1806L90.2457 51.4516C90.022 51.9849 89.6693 52.4065 89.1876 52.7161C88.7059 53.0258 88.1381 53.1806 87.4844 53.1806ZM93.9548 53.1806C93.3699 53.1806 92.9054 53.0301 92.5613 52.729C92.2172 52.4194 92.0452 52.0022 92.0452 51.4774C92.0452 51.0817 92.1398 50.7591 92.329 50.5097C92.5269 50.2602 92.7763 50.0624 93.0774 49.9161C93.3871 49.7613 93.714 49.6366 94.0581 49.5419C94.4022 49.4473 94.7247 49.3613 95.0258 49.2839C95.3355 49.1978 95.5849 49.0989 95.7742 48.9871C95.972 48.8753 96.071 48.7247 96.071 48.5355V47.929C96.071 47.5161 95.9462 47.2065 95.6968 47C95.4559 46.7935 95.0946 46.6903 94.6129 46.6903C94.2602 46.6903 93.9634 46.7376 93.7226 46.8323C93.4817 46.9269 93.3613 47.0473 93.3613 47.1935C93.3613 47.271 93.3871 47.357 93.4387 47.4516C93.4989 47.5376 93.5548 47.6366 93.6065 47.7484C93.6667 47.8516 93.6968 47.9634 93.6968 48.0839C93.6968 48.2473 93.6366 48.3806 93.5161 48.4839C93.4043 48.5871 93.2538 48.6387 93.0645 48.6387C92.8323 48.6387 92.643 48.5656 92.4968 48.4194C92.3591 48.2645 92.2903 48.0624 92.2903 47.8129C92.2903 47.5032 92.4108 47.228 92.6516 46.9871C92.8925 46.7376 93.2151 46.5398 93.6194 46.3935C94.0237 46.2473 94.4796 46.1742 94.9871 46.1742C95.5118 46.1742 95.9376 46.2559 96.2645 46.4194C96.6 46.5828 96.8452 46.8366 97 47.1806C97.1548 47.5247 97.2323 47.9677 97.2323 48.5097V51.929C97.2323 52.1355 97.2667 52.2903 97.3355 52.3935C97.4129 52.4882 97.5247 52.5355 97.671 52.5355C97.8258 52.5355 97.9763 52.4968 98.1226 52.4194C98.2774 52.3419 98.4237 52.2516 98.5613 52.1484L98.8065 52.5613C98.5828 52.7591 98.3505 52.9097 98.1097 53.0129C97.8774 53.1247 97.6022 53.1806 97.2839 53.1806C96.4753 53.1806 96.071 52.7978 96.071 52.0323C95.8215 52.4108 95.5161 52.6989 95.1548 52.8968C94.8022 53.086 94.4022 53.1806 93.9548 53.1806ZM94.3935 52.4194C94.7204 52.4194 95.0258 52.3376 95.3097 52.1742C95.6022 52.0108 95.8559 51.7785 96.071 51.4774V49.2065C95.9849 49.3441 95.8301 49.4602 95.6065 49.5548C95.3914 49.6409 95.1505 49.7312 94.8839 49.8258C94.6172 49.9118 94.3591 50.0151 94.1097 50.1355C93.8688 50.2559 93.6667 50.4108 93.5032 50.6C93.3398 50.7892 93.2581 51.0387 93.2581 51.3484C93.2581 51.6839 93.357 51.9462 93.5548 52.1355C93.7613 52.3247 94.0409 52.4194 94.3935 52.4194ZM99.4591 53V52.4968C100.018 52.4882 100.405 52.4194 100.62 52.2903C100.835 52.1527 100.943 51.9118 100.943 51.5677V47.9935C100.943 47.5892 100.831 47.3054 100.607 47.1419C100.384 46.9699 100.001 46.8753 99.4591 46.8581V46.3548C99.6311 46.3634 99.8075 46.372 99.9881 46.3806C100.169 46.3892 100.358 46.3935 100.556 46.3935C101.106 46.3935 101.623 46.3333 102.104 46.2129V51.5032C102.104 51.8645 102.238 52.1183 102.504 52.2645C102.78 52.4108 103.253 52.4882 103.924 52.4968V53C103.769 52.9914 103.558 52.9871 103.291 52.9871C103.033 52.9785 102.749 52.9699 102.44 52.9613C102.139 52.9527 101.838 52.9484 101.536 52.9484C101.124 52.9484 100.724 52.957 100.336 52.9742C99.9494 52.9828 99.6569 52.9914 99.4591 53ZM104.582 48.3935C104.41 48.3935 104.263 48.3419 104.143 48.2387C104.031 48.1355 103.975 48.0065 103.975 47.8516C103.975 47.7312 103.997 47.628 104.04 47.5419C104.091 47.4559 104.139 47.3742 104.182 47.2968C104.225 47.2194 104.246 47.1419 104.246 47.0645C104.246 46.8839 104.113 46.7935 103.846 46.7935C103.631 46.7935 103.403 46.8495 103.162 46.9613C102.921 47.0731 102.702 47.2194 102.504 47.4C102.306 47.5806 102.16 47.7828 102.066 48.0065L102.027 47.4645C102.268 47.0516 102.569 46.7333 102.93 46.5097C103.3 46.286 103.687 46.1742 104.091 46.1742C104.496 46.1742 104.814 46.2903 105.046 46.5226C105.287 46.7462 105.407 47.043 105.407 47.4129C105.407 47.7054 105.33 47.9419 105.175 48.1226C105.029 48.3032 104.831 48.3935 104.582 48.3935ZM109.578 53.1806C108.959 53.1806 108.421 53.043 107.965 52.7677C107.509 52.4839 107.157 52.0839 106.907 51.5677C106.658 51.043 106.533 50.4237 106.533 49.7097C106.533 48.9871 106.662 48.3634 106.92 47.8387C107.178 47.3054 107.544 46.8968 108.017 46.6129C108.49 46.3204 109.045 46.1742 109.681 46.1742C110.154 46.1742 110.576 46.2473 110.946 46.3935C111.324 46.5398 111.621 46.7376 111.836 46.9871C112.051 47.2366 112.159 47.5247 112.159 47.8516C112.159 48.1355 112.073 48.3677 111.901 48.5484C111.737 48.729 111.522 48.8194 111.256 48.8194C111.04 48.8194 110.868 48.7634 110.739 48.6516C110.61 48.5312 110.546 48.3763 110.546 48.1871C110.546 48.0323 110.576 47.8989 110.636 47.7871C110.705 47.6667 110.774 47.5548 110.843 47.4516C110.911 47.3484 110.946 47.2495 110.946 47.1548C110.946 47.0086 110.847 46.8925 110.649 46.8065C110.46 46.7118 110.21 46.6645 109.901 46.6645C109.213 46.6645 108.688 46.914 108.327 47.4129C107.965 47.9118 107.785 48.6344 107.785 49.5806C107.785 50.5183 107.961 51.2409 108.314 51.7484C108.675 52.2473 109.191 52.4968 109.862 52.4968C110.292 52.4968 110.671 52.3892 110.997 52.1742C111.324 51.9505 111.591 51.6194 111.797 51.1806L112.262 51.4516C112.047 51.9935 111.703 52.4194 111.23 52.729C110.765 53.0301 110.215 53.1806 109.578 53.1806ZM118.01 53V52.4968C118.398 52.4882 118.66 52.4194 118.798 52.2903C118.944 52.1527 119.017 51.9118 119.017 51.5677V48.5742C119.017 47.9978 118.905 47.5634 118.681 47.271C118.458 46.9785 118.122 46.8323 117.675 46.8323C117.314 46.8323 116.974 46.9355 116.656 47.1419C116.337 47.3398 116.062 47.6323 115.83 48.0194L115.843 47.4516C116.058 47.0559 116.363 46.7462 116.759 46.5226C117.163 46.2903 117.606 46.1742 118.088 46.1742C118.759 46.1742 119.275 46.3892 119.636 46.8194C119.998 47.2409 120.178 47.8473 120.178 48.6387V51.5677C120.178 51.9118 120.286 52.1527 120.501 52.2903C120.716 52.4194 121.103 52.4882 121.662 52.4968V53C121.533 52.9914 121.352 52.9871 121.12 52.9871C120.897 52.9785 120.651 52.9699 120.385 52.9613C120.118 52.9527 119.86 52.9484 119.61 52.9484C119.301 52.9484 118.995 52.957 118.694 52.9742C118.393 52.9828 118.165 52.9914 118.01 53ZM113.262 53V52.4968C113.821 52.4882 114.208 52.4194 114.423 52.2903C114.638 52.1527 114.746 51.9118 114.746 51.5677V44.6774C114.746 44.2645 114.634 43.9763 114.41 43.8129C114.195 43.6409 113.813 43.5505 113.262 43.5419V43.0258C113.434 43.0344 113.61 43.043 113.791 43.0516C113.98 43.0602 114.17 43.0645 114.359 43.0645C114.643 43.0645 114.914 43.0516 115.172 43.0258C115.43 42.9914 115.675 42.9441 115.907 42.8839V51.5677C115.907 51.9118 115.976 52.1527 116.114 52.2903C116.26 52.4194 116.527 52.4882 116.914 52.4968V53C116.742 52.9914 116.505 52.9828 116.204 52.9742C115.912 52.957 115.61 52.9484 115.301 52.9484C114.948 52.9484 114.578 52.957 114.191 52.9742C113.813 52.9828 113.503 52.9914 113.262 53Z" fill="black" fill-opacity="0.65"/>
<defs>
<clipPath id="bgblur_0_501_883_clip_path" transform="translate(15 15)"><rect width="162" height="67" rx="5"/>
</clipPath></defs>
</svg>
