<svg width="44" height="44" viewBox="0 0 44 44" fill="none" xmlns="http://www.w3.org/2000/svg">
<rect width="44" height="44" rx="5" fill="#F7F7FA"/>
<path d="M31.166 3.66675H12.8327C7.77007 3.66675 3.66602 7.7708 3.66602 12.8334V31.1667C3.66602 36.2294 7.77007 40.3334 12.8327 40.3334H31.166C36.2286 40.3334 40.3327 36.2294 40.3327 31.1667V12.8334C40.3327 7.7708 36.2286 3.66675 31.166 3.66675Z" stroke="#AC36A6" stroke-opacity="0.93" stroke-width="2" stroke-linecap="round" stroke-linejoin="round"/>
<path d="M32.0834 11.9167H32.1018M29.3334 20.8451C29.5597 22.3709 29.2991 23.9291 28.5887 25.2983C27.8783 26.6674 26.7542 27.7777 25.3764 28.4711C23.9986 29.1646 22.4373 29.406 20.9144 29.161C19.3915 28.9159 17.9847 28.1969 16.894 27.1062C15.8033 26.0155 15.0843 24.6087 14.8392 23.0858C14.5942 21.5629 14.8356 20.0016 15.529 18.6238C16.2225 17.246 17.3328 16.1219 18.7019 15.4115C20.0711 14.7011 21.6293 14.4405 23.1551 14.6667C24.7115 14.8975 26.1523 15.6228 27.2649 16.7353C28.3774 17.8479 29.1027 19.2887 29.3334 20.8451Z" stroke="#AC36A6" stroke-opacity="0.93" stroke-width="2" stroke-linecap="round" stroke-linejoin="round"/>
</svg>
