<svg width="44" height="44" viewBox="0 0 44 44" fill="none" xmlns="http://www.w3.org/2000/svg">
<rect width="44" height="44" rx="5" fill="#F7F7FA"/>
<path d="M12.724 9.16655C12.7235 10.139 12.3367 11.0714 11.6487 11.7587C10.9607 12.446 10.0279 12.8319 9.05546 12.8314C8.083 12.8309 7.15056 12.4441 6.46327 11.7561C5.77598 11.0682 5.39014 10.1353 5.39063 9.16288C5.39111 8.19042 5.77789 7.25798 6.46586 6.57069C7.15384 5.8834 8.08666 5.49756 9.05913 5.49805C10.0316 5.49853 10.964 5.88531 11.6513 6.57329C12.3386 7.26126 12.7244 8.19409 12.724 9.16655ZM12.834 15.5465H5.50063V38.4999H12.834V15.5465ZM24.4206 15.5465H17.124V38.4999H24.3473V26.4549C24.3473 19.7449 33.0923 19.1215 33.0923 26.4549V38.4999H40.334V23.9615C40.334 12.6499 27.3906 13.0715 24.3473 18.6265L24.4206 15.5465Z" fill="#AC36A6" fill-opacity="0.93"/>
</svg>
