<svg width="44" height="44" viewBox="0 0 44 44" fill="none" xmlns="http://www.w3.org/2000/svg">
<path d="M21.9993 11.9166C22.7287 11.9166 23.4282 11.6269 23.9439 11.1112C24.4596 10.5954 24.7493 9.89597 24.7493 9.16663V3.66663C24.7493 2.93728 24.4596 2.23781 23.9439 1.72208C23.4282 1.20636 22.7287 0.916626 21.9993 0.916626C21.27 0.916626 20.5705 1.20636 20.0548 1.72208C19.5391 2.23781 19.2493 2.93728 19.2493 3.66663V9.16663C19.2493 9.89597 19.5391 10.5954 20.0548 11.1112C20.5705 11.6269 21.27 11.9166 21.9993 11.9166ZM15.161 11.2016L11.2743 7.33329C10.7494 6.81492 10.0413 6.52425 9.30352 6.52425C8.56574 6.52425 7.85766 6.81492 7.33268 7.33329C7.07561 7.58719 6.87183 7.88987 6.73331 8.22358C6.59479 8.55729 6.52431 8.91531 6.52602 9.27663C6.53538 9.99856 6.82457 10.6887 7.33268 11.2016L11.2743 15.0883C11.7896 15.6042 12.4886 15.8943 13.2177 15.895C13.7612 15.8945 14.2924 15.7329 14.7442 15.4307C15.196 15.1285 15.5481 14.6992 15.7561 14.197C15.964 13.6948 16.0185 13.1423 15.9126 12.6091C15.8066 12.076 15.5451 11.5862 15.161 11.2016ZM0.916016 22C0.916016 22.7293 1.20575 23.4288 1.72147 23.9445C2.2372 24.4602 2.93667 24.75 3.66602 24.75H9.16602C9.89536 24.75 10.5948 24.4602 11.1106 23.9445C11.6263 23.4288 11.916 22.7293 11.916 22C11.916 21.2706 11.6263 20.5711 11.1106 20.0554C10.5948 19.5397 9.89536 19.25 9.16602 19.25H3.66602C2.93667 19.25 2.2372 19.5397 1.72147 20.0554C1.20575 20.5711 0.916016 21.2706 0.916016 22ZM12.8327 28.4533C12.4537 28.451 12.0785 28.5281 11.7311 28.6797C11.3838 28.8313 11.0721 29.0539 10.816 29.3333L6.91102 33.1466C6.40047 33.6646 6.11426 34.3627 6.11426 35.09C6.11426 35.8172 6.40047 36.5153 6.91102 37.0333C7.42977 37.5494 8.13176 37.8391 8.86352 37.8391C9.59527 37.8391 10.2973 37.5494 10.816 37.0333L14.666 33.1466C15.0443 32.7688 15.3041 32.2889 15.4139 31.7656C15.5237 31.2424 15.4785 30.6985 15.284 30.2005C15.0895 29.7025 14.754 29.272 14.3186 28.9617C13.8833 28.6514 13.3669 28.4747 12.8327 28.4533ZM19.2493 40.3333C19.2493 41.0626 19.5391 41.7621 20.0548 42.2778C20.5705 42.7936 21.27 43.0833 21.9993 43.0833C22.7287 43.0833 23.4282 42.7936 23.9439 42.2778C24.4596 41.7621 24.7493 41.0626 24.7493 40.3333V34.8333C24.7493 34.1039 24.4596 33.4045 23.9439 32.8888C23.4282 32.373 22.7287 32.0833 21.9993 32.0833C21.27 32.0833 20.5705 32.373 20.0548 32.8888C19.5391 33.4045 19.2493 34.1039 19.2493 34.8333V40.3333ZM29.4243 29.3333C28.9094 29.8489 28.6201 30.5479 28.6201 31.2766C28.6201 32.0054 28.9094 32.7043 29.4243 33.22L33.311 37.1066C33.8285 37.6191 34.526 37.9087 35.2543 37.9133C35.9882 37.9096 36.6918 37.6203 37.216 37.1066C37.7252 36.5884 38.0086 35.8898 38.0043 35.1633C38.0085 34.7989 37.9392 34.4374 37.8006 34.1004C37.662 33.7633 37.457 33.4577 37.1977 33.2016L33.311 29.3333C32.7954 28.8183 32.0964 28.529 31.3677 28.529C30.6389 28.529 29.94 28.8183 29.4243 29.3333ZM43.0827 22C43.0827 21.2706 42.7929 20.5711 42.2772 20.0554C41.7615 19.5397 41.062 19.25 40.3327 19.25H34.8327C34.1033 19.25 33.4039 19.5397 32.8881 20.0554C32.3724 20.5711 32.0827 21.2706 32.0827 22C32.0827 22.7293 32.3724 23.4288 32.8881 23.9445C33.4039 24.4602 34.1033 24.75 34.8327 24.75H40.3327C41.062 24.75 41.7615 24.4602 42.2772 23.9445C42.7929 23.4288 43.0827 22.7293 43.0827 22ZM34.8327 6.25163C34.1427 6.28401 33.4894 6.57148 32.9994 7.05829L29.076 11C28.561 11.5156 28.2718 12.2145 28.2718 12.9433C28.2718 13.672 28.561 14.371 29.076 14.8866C29.5948 15.4027 30.2968 15.6925 31.0285 15.6925C31.7603 15.6925 32.4623 15.4027 32.981 14.8866L36.8677 11C37.2782 10.6135 37.56 10.1103 37.675 9.55833C37.79 9.00639 37.7325 8.43245 37.5105 7.91425C37.2884 7.39605 36.9124 6.95862 36.4334 6.66123C35.9544 6.36384 35.3956 6.22085 34.8327 6.25163Z" fill="#AC36A6" fill-opacity="0.93"/>
</svg>
