<svg width="44" height="44" viewBox="0 0 44 44" fill="none" xmlns="http://www.w3.org/2000/svg">
<path d="M34.6299 17.9905C34.6296 21.1069 33.7529 24.1605 32.0998 26.8024C30.4468 29.4443 28.0841 31.568 25.2815 32.931C22.4789 34.2941 19.3495 34.8415 16.2507 34.5107C13.1519 34.1799 10.2085 32.9842 7.75687 31.0603M1.4667 19.4901C1.1591 16.1071 1.89594 12.711 3.57794 9.75968C5.25993 6.80831 7.80622 4.44347 10.8737 2.98387C13.9411 1.52426 17.3823 1.04005 20.7334 1.59647C24.0845 2.15289 27.1846 3.72321 29.6157 6.09581M29.7642 29.7385L42.625 42.625M42.625 11.5885V2.74998H33.8122" stroke="#AC36A6" stroke-opacity="0.93" stroke-width="1.5" stroke-linecap="round" stroke-linejoin="round"/>
<path d="M1.375 30.25L16.6283 15.0022C16.9546 14.6781 17.3959 14.4962 17.8558 14.4962C18.3157 14.4962 18.7569 14.6781 19.0832 15.0022L23.5675 19.4883C23.8931 19.8138 24.3346 19.9966 24.7949 19.9966C25.2553 19.9966 25.6968 19.8138 26.0223 19.4883L42.625 2.75" stroke="#AC36A6" stroke-opacity="0.93" stroke-width="1.5" stroke-linecap="round" stroke-linejoin="round"/>
</svg>
