<svg width="140" height="24" viewBox="0 0 140 24" fill="none" xmlns="http://www.w3.org/2000/svg">
<path fill-rule="evenodd" clip-rule="evenodd" d="M20.9991 12C20.9991 14.488 20.1201 16.605 18.3631 18.363C17.5388 19.2138 16.5489 19.8866 15.4546 20.34C14.3602 20.7933 13.1845 21.0176 12.0001 20.999C9.51207 20.999 7.39507 20.12 5.63707 18.363C4.78631 17.5387 4.11349 16.5489 3.66012 15.4545C3.20676 14.3601 2.98246 13.1844 3.00107 12C3.00107 9.51201 3.88007 7.39501 5.63707 5.63701C6.46134 4.78625 7.45121 4.11343 8.54559 3.66006C9.63997 3.20669 10.8156 2.9824 12.0001 3.00101C14.4881 3.00101 16.6051 3.88001 18.3631 5.63701C19.2138 6.46128 19.8866 7.45115 20.34 8.54553C20.7934 9.63991 21.0177 10.8156 20.9991 12ZM17.9241 17.924C17.1597 18.7198 16.2386 19.3483 15.2189 19.77C14.1993 20.1917 13.1032 20.3974 12.0001 20.374C9.68674 20.3747 7.7124 19.558 6.07707 17.924C5.28549 17.1564 4.65961 16.2347 4.23806 15.2158C3.81651 14.197 3.60823 13.1025 3.62607 12C3.6254 9.68668 4.44207 7.71234 6.07607 6.07701C6.88693 5.25269 7.86108 4.6069 8.93607 4.18101C9.91389 3.80667 10.9531 3.61844 12.0001 3.62601C14.3134 3.62534 16.2881 4.44201 17.9241 6.07601C18.7155 6.8437 19.3412 7.76542 19.7625 8.7843C20.1839 9.80317 20.392 10.8976 20.3741 12C20.3741 14.313 19.5541 16.288 17.9241 17.924ZM18.0501 10.322L13.9961 10.137C13.9346 10.1369 13.8747 10.1173 13.8251 10.081C13.7755 10.0447 13.7387 9.99359 13.7201 9.93501L12.2911 6.11401C12.2723 6.05254 12.2334 5.99918 12.1806 5.96253C12.1278 5.92589 12.0642 5.90809 12.0001 5.91201C11.9359 5.90809 11.8723 5.92589 11.8195 5.96253C11.7667 5.99918 11.7278 6.05254 11.7091 6.11401L10.2791 9.93501C10.2612 9.99384 10.2247 10.0453 10.1751 10.0817C10.1256 10.1181 10.0656 10.1375 10.0041 10.137L5.95007 10.322C5.88626 10.3208 5.82388 10.341 5.77293 10.3794C5.72198 10.4179 5.68541 10.4723 5.66907 10.534C5.6448 10.5943 5.64147 10.6609 5.6596 10.7233C5.67774 10.7857 5.71628 10.8402 5.76907 10.878L8.94607 13.424C9.05207 13.509 9.08307 13.62 9.05207 13.752L7.97207 17.69C7.92907 17.828 7.97207 17.94 8.08807 18.024C8.19907 18.109 8.32107 18.109 8.43807 18.029L11.8251 15.779C11.8749 15.7423 11.9352 15.7225 11.9971 15.7225C12.059 15.7225 12.1192 15.7423 12.1691 15.779L15.5571 18.029C15.6791 18.109 15.8011 18.109 15.9121 18.024C16.0281 17.939 16.0711 17.828 16.0281 17.69L14.9541 13.752C14.9343 13.6932 14.934 13.6296 14.953 13.5706C14.9721 13.5115 15.0096 13.4602 15.0601 13.424L18.2361 10.878C18.2871 10.8397 18.3241 10.7856 18.3413 10.7241C18.3584 10.6627 18.3549 10.5972 18.3311 10.538C18.3136 10.4773 18.2769 10.4239 18.2263 10.386C18.1758 10.3481 18.1142 10.3277 18.0511 10.328L18.0501 10.322Z" fill="#AC36A6" fill-opacity="0.93"/>
<path fill-rule="evenodd" clip-rule="evenodd" d="M49.9991 12C49.9991 14.488 49.1201 16.605 47.3631 18.363C46.5388 19.2138 45.5489 19.8866 44.4546 20.34C43.3602 20.7933 42.1845 21.0176 41.0001 20.999C38.5121 20.999 36.3951 20.12 34.6371 18.363C33.7863 17.5387 33.1135 16.5489 32.6601 15.4545C32.2068 14.3601 31.9825 13.1844 32.0011 12C32.0011 9.51201 32.8801 7.39501 34.6371 5.63701C35.4613 4.78625 36.4512 4.11343 37.5456 3.66006C38.64 3.20669 39.8156 2.9824 41.0001 3.00101C43.4881 3.00101 45.6051 3.88001 47.3631 5.63701C48.2138 6.46128 48.8866 7.45115 49.34 8.54553C49.7934 9.63991 50.0177 10.8156 49.9991 12ZM46.9241 17.924C46.1597 18.7198 45.2386 19.3483 44.2189 19.77C43.1993 20.1917 42.1032 20.3974 41.0001 20.374C38.6867 20.3747 36.7124 19.558 35.0771 17.924C34.2855 17.1564 33.6596 16.2347 33.2381 15.2158C32.8165 14.197 32.6082 13.1025 32.6261 12C32.6254 9.68668 33.4421 7.71234 35.0761 6.07701C35.8869 5.25269 36.8611 4.6069 37.9361 4.18101C38.9139 3.80667 39.9531 3.61844 41.0001 3.62601C43.3134 3.62534 45.2881 4.44201 46.9241 6.07601C47.7155 6.8437 48.3412 7.76542 48.7625 8.7843C49.1839 9.80317 49.392 10.8976 49.3741 12C49.3741 14.313 48.5541 16.288 46.9241 17.924ZM47.0501 10.322L42.9961 10.137C42.9346 10.1369 42.8747 10.1173 42.8251 10.081C42.7755 10.0447 42.7387 9.99359 42.7201 9.93501L41.2911 6.11401C41.2723 6.05254 41.2334 5.99918 41.1806 5.96253C41.1278 5.92589 41.0642 5.90809 41.0001 5.91201C40.9359 5.90809 40.8723 5.92589 40.8195 5.96253C40.7667 5.99918 40.7278 6.05254 40.7091 6.11401L39.2791 9.93501C39.2612 9.99384 39.2247 10.0453 39.1751 10.0817C39.1256 10.1181 39.0656 10.1375 39.0041 10.137L34.9501 10.322C34.8863 10.3208 34.8239 10.341 34.7729 10.3794C34.722 10.4179 34.6854 10.4723 34.6691 10.534C34.6448 10.5943 34.6415 10.6609 34.6596 10.7233C34.6777 10.7857 34.7163 10.8402 34.7691 10.878L37.9461 13.424C38.0521 13.509 38.0831 13.62 38.0521 13.752L36.9721 17.69C36.9291 17.828 36.9721 17.94 37.0881 18.024C37.1991 18.109 37.3211 18.109 37.4381 18.029L40.8251 15.779C40.8749 15.7423 40.9352 15.7225 40.9971 15.7225C41.059 15.7225 41.1192 15.7423 41.1691 15.779L44.5571 18.029C44.6791 18.109 44.8011 18.109 44.9121 18.024C45.0281 17.939 45.0711 17.828 45.0281 17.69L43.9541 13.752C43.9343 13.6932 43.934 13.6296 43.953 13.5706C43.9721 13.5115 44.0096 13.4602 44.0601 13.424L47.2361 10.878C47.2871 10.8397 47.3241 10.7856 47.3413 10.7241C47.3584 10.6627 47.3549 10.5972 47.3311 10.538C47.3136 10.4773 47.2769 10.4239 47.2263 10.386C47.1758 10.3481 47.1142 10.3277 47.0511 10.328L47.0501 10.322Z" fill="#AC36A6" fill-opacity="0.93"/>
<path fill-rule="evenodd" clip-rule="evenodd" d="M78.9991 12C78.9991 14.488 78.1201 16.605 76.3631 18.363C75.5388 19.2138 74.5489 19.8866 73.4546 20.34C72.3602 20.7933 71.1845 21.0176 70.0001 20.999C67.5121 20.999 65.3951 20.12 63.6371 18.363C62.7863 17.5387 62.1135 16.5489 61.6601 15.4545C61.2068 14.3601 60.9825 13.1844 61.0011 12C61.0011 9.51201 61.8801 7.39501 63.6371 5.63701C64.4613 4.78625 65.4512 4.11343 66.5456 3.66006C67.64 3.20669 68.8156 2.9824 70.0001 3.00101C72.4881 3.00101 74.6051 3.88001 76.3631 5.63701C77.2138 6.46128 77.8866 7.45115 78.34 8.54553C78.7934 9.63991 79.0177 10.8156 78.9991 12ZM75.9241 17.924C75.1597 18.7198 74.2386 19.3483 73.2189 19.77C72.1993 20.1917 71.1032 20.3974 70.0001 20.374C67.6867 20.3747 65.7124 19.558 64.0771 17.924C63.2855 17.1564 62.6596 16.2347 62.2381 15.2158C61.8165 14.197 61.6082 13.1025 61.6261 12C61.6254 9.68668 62.4421 7.71234 64.0761 6.07701C64.8869 5.25269 65.8611 4.6069 66.9361 4.18101C67.9139 3.80667 68.9531 3.61844 70.0001 3.62601C72.3134 3.62534 74.2881 4.44201 75.9241 6.07601C76.7155 6.8437 77.3412 7.76542 77.7625 8.7843C78.1839 9.80317 78.392 10.8976 78.3741 12C78.3741 14.313 77.5541 16.288 75.9241 17.924ZM76.0501 10.322L71.9961 10.137C71.9346 10.1369 71.8747 10.1173 71.8251 10.081C71.7755 10.0447 71.7387 9.99359 71.7201 9.93501L70.2911 6.11401C70.2723 6.05254 70.2334 5.99918 70.1806 5.96253C70.1278 5.92589 70.0642 5.90809 70.0001 5.91201C69.9359 5.90809 69.8723 5.92589 69.8195 5.96253C69.7667 5.99918 69.7278 6.05254 69.7091 6.11401L68.2791 9.93501C68.2612 9.99384 68.2247 10.0453 68.1751 10.0817C68.1256 10.1181 68.0656 10.1375 68.0041 10.137L63.9501 10.322C63.8863 10.3208 63.8239 10.341 63.7729 10.3794C63.722 10.4179 63.6854 10.4723 63.6691 10.534C63.6448 10.5943 63.6415 10.6609 63.6596 10.7233C63.6777 10.7857 63.7163 10.8402 63.7691 10.878L66.9461 13.424C67.0521 13.509 67.0831 13.62 67.0521 13.752L65.9721 17.69C65.9291 17.828 65.9721 17.94 66.0881 18.024C66.1991 18.109 66.3211 18.109 66.4381 18.029L69.8251 15.779C69.8749 15.7423 69.9352 15.7225 69.9971 15.7225C70.059 15.7225 70.1192 15.7423 70.1691 15.779L73.5571 18.029C73.6791 18.109 73.8011 18.109 73.9121 18.024C74.0281 17.939 74.0711 17.828 74.0281 17.69L72.9541 13.752C72.9343 13.6932 72.934 13.6296 72.953 13.5706C72.9721 13.5115 73.0096 13.4602 73.0601 13.424L76.2361 10.878C76.2871 10.8397 76.3241 10.7856 76.3413 10.7241C76.3584 10.6627 76.3549 10.5972 76.3311 10.538C76.3136 10.4773 76.2769 10.4239 76.2263 10.386C76.1758 10.3481 76.1142 10.3277 76.0511 10.328L76.0501 10.322Z" fill="#AC36A6" fill-opacity="0.93"/>
<path fill-rule="evenodd" clip-rule="evenodd" d="M107.999 12C107.999 14.488 107.12 16.605 105.363 18.363C104.539 19.2138 103.549 19.8866 102.455 20.34C101.36 20.7933 100.184 21.0176 99.0001 20.999C96.5121 20.999 94.3951 20.12 92.6371 18.363C91.7863 17.5387 91.1135 16.5489 90.6601 15.4545C90.2068 14.3601 89.9825 13.1844 90.0011 12C90.0011 9.51201 90.8801 7.39501 92.6371 5.63701C93.4613 4.78625 94.4512 4.11343 95.5456 3.66006C96.64 3.20669 97.8156 2.9824 99.0001 3.00101C101.488 3.00101 103.605 3.88001 105.363 5.63701C106.214 6.46128 106.887 7.45115 107.34 8.54553C107.793 9.63991 108.018 10.8156 107.999 12ZM104.924 17.924C104.16 18.7198 103.239 19.3483 102.219 19.77C101.199 20.1917 100.103 20.3974 99.0001 20.374C96.6867 20.3747 94.7124 19.558 93.0771 17.924C92.2855 17.1564 91.6596 16.2347 91.2381 15.2158C90.8165 14.197 90.6082 13.1025 90.6261 12C90.6254 9.68668 91.4421 7.71234 93.0761 6.07701C93.8869 5.25269 94.8611 4.6069 95.9361 4.18101C96.9139 3.80667 97.9531 3.61844 99.0001 3.62601C101.313 3.62534 103.288 4.44201 104.924 6.07601C105.715 6.8437 106.341 7.76542 106.763 8.7843C107.184 9.80317 107.392 10.8976 107.374 12C107.374 14.313 106.554 16.288 104.924 17.924ZM105.05 10.322L100.996 10.137C100.935 10.1369 100.875 10.1173 100.825 10.081C100.776 10.0447 100.739 9.99359 100.72 9.93501L99.2911 6.11401C99.2723 6.05254 99.2334 5.99918 99.1806 5.96253C99.1278 5.92589 99.0642 5.90809 99.0001 5.91201C98.9359 5.90809 98.8723 5.92589 98.8195 5.96253C98.7667 5.99918 98.7278 6.05254 98.7091 6.11401L97.2791 9.93501C97.2612 9.99384 97.2247 10.0453 97.1751 10.0817C97.1256 10.1181 97.0656 10.1375 97.0041 10.137L92.9501 10.322C92.8863 10.3208 92.8239 10.341 92.7729 10.3794C92.722 10.4179 92.6854 10.4723 92.6691 10.534C92.6448 10.5943 92.6415 10.6609 92.6596 10.7233C92.6777 10.7857 92.7163 10.8402 92.7691 10.878L95.9461 13.424C96.0521 13.509 96.0831 13.62 96.0521 13.752L94.9721 17.69C94.9291 17.828 94.9721 17.94 95.0881 18.024C95.1991 18.109 95.3211 18.109 95.4381 18.029L98.8251 15.779C98.8749 15.7423 98.9352 15.7225 98.9971 15.7225C99.059 15.7225 99.1192 15.7423 99.1691 15.779L102.557 18.029C102.679 18.109 102.801 18.109 102.912 18.024C103.028 17.939 103.071 17.828 103.028 17.69L101.954 13.752C101.934 13.6932 101.934 13.6296 101.953 13.5706C101.972 13.5115 102.01 13.4602 102.06 13.424L105.236 10.878C105.287 10.8397 105.324 10.7856 105.341 10.7241C105.358 10.6627 105.355 10.5972 105.331 10.538C105.314 10.4773 105.277 10.4239 105.226 10.386C105.176 10.3481 105.114 10.3277 105.051 10.328L105.05 10.322Z" fill="#AC36A6" fill-opacity="0.93"/>
<path fill-rule="evenodd" clip-rule="evenodd" d="M136.999 12C136.999 14.488 136.12 16.605 134.363 18.363C133.539 19.2138 132.549 19.8866 131.455 20.34C130.36 20.7933 129.184 21.0176 128 20.999C125.512 20.999 123.395 20.12 121.637 18.363C120.786 17.5387 120.113 16.5489 119.66 15.4545C119.207 14.3601 118.982 13.1844 119.001 12C119.001 9.51201 119.88 7.39501 121.637 5.63701C122.461 4.78625 123.451 4.11343 124.546 3.66006C125.64 3.20669 126.816 2.9824 128 3.00101C130.488 3.00101 132.605 3.88001 134.363 5.63701C135.214 6.46128 135.887 7.45115 136.34 8.54553C136.793 9.63991 137.018 10.8156 136.999 12ZM133.924 17.924C133.16 18.7198 132.239 19.3483 131.219 19.77C130.199 20.1917 129.103 20.3974 128 20.374C125.687 20.3747 123.712 19.558 122.077 17.924C121.285 17.1564 120.66 16.2347 120.238 15.2158C119.817 14.197 119.608 13.1025 119.626 12C119.625 9.68668 120.442 7.71234 122.076 6.07701C122.887 5.25269 123.861 4.6069 124.936 4.18101C125.914 3.80667 126.953 3.61844 128 3.62601C130.313 3.62534 132.288 4.44201 133.924 6.07601C134.715 6.8437 135.341 7.76542 135.763 8.7843C136.184 9.80317 136.392 10.8976 136.374 12C136.374 14.313 135.554 16.288 133.924 17.924ZM134.05 10.322L129.996 10.137C129.935 10.1369 129.875 10.1173 129.825 10.081C129.776 10.0447 129.739 9.99359 129.72 9.93501L128.291 6.11401C128.272 6.05254 128.233 5.99918 128.181 5.96253C128.128 5.92589 128.064 5.90809 128 5.91201C127.936 5.90809 127.872 5.92589 127.82 5.96253C127.767 5.99918 127.728 6.05254 127.709 6.11401L126.279 9.93501C126.261 9.99384 126.225 10.0453 126.175 10.0817C126.126 10.1181 126.066 10.1375 126.004 10.137L121.95 10.322C121.886 10.3208 121.824 10.341 121.773 10.3794C121.722 10.4179 121.685 10.4723 121.669 10.534C121.645 10.5943 121.641 10.6609 121.66 10.7233C121.678 10.7857 121.716 10.8402 121.769 10.878L124.946 13.424C125.052 13.509 125.083 13.62 125.052 13.752L123.972 17.69C123.929 17.828 123.972 17.94 124.088 18.024C124.199 18.109 124.321 18.109 124.438 18.029L127.825 15.779C127.875 15.7423 127.935 15.7225 127.997 15.7225C128.059 15.7225 128.119 15.7423 128.169 15.779L131.557 18.029C131.679 18.109 131.801 18.109 131.912 18.024C132.028 17.939 132.071 17.828 132.028 17.69L130.954 13.752C130.934 13.6932 130.934 13.6296 130.953 13.5706C130.972 13.5115 131.01 13.4602 131.06 13.424L134.236 10.878C134.287 10.8397 134.324 10.7856 134.341 10.7241C134.358 10.6627 134.355 10.5972 134.331 10.538C134.314 10.4773 134.277 10.4239 134.226 10.386C134.176 10.3481 134.114 10.3277 134.051 10.328L134.05 10.322Z" fill="#AC36A6" fill-opacity="0.93"/>
</svg>
