<svg width="16" height="20" viewBox="0 0 16 20" fill="none" xmlns="http://www.w3.org/2000/svg">
<path d="M8 12C8.55 12 9.021 11.8043 9.413 11.413C9.805 11.0217 10.0007 10.5507 10 10C9.99933 9.44933 9.80367 8.97867 9.413 8.588C9.02233 8.19733 8.55133 8.00133 8 8C7.44867 7.99867 6.978 8.19467 6.588 8.588C6.198 8.98133 6.002 9.452 6 10C5.998 10.548 6.194 11.019 6.588 11.413C6.982 11.807 7.45267 12.0027 8 12ZM4 16H12V15.425C12 15.025 11.8917 14.6583 11.675 14.325C11.4583 13.9917 11.1583 13.7417 10.775 13.575C10.3417 13.3917 9.89567 13.25 9.437 13.15C8.97833 13.05 8.49933 13 8 13C7.50067 13 7.02167 13.05 6.563 13.15C6.10433 13.25 5.65833 13.3917 5.225 13.575C4.84167 13.7417 4.54167 13.9917 4.325 14.325C4.10833 14.6583 4 15.025 4 15.425V16ZM14 20H2C1.45 20 0.979333 19.8043 0.588 19.413C0.196666 19.0217 0.000666667 18.5507 0 18V2C0 1.45 0.196 0.979333 0.588 0.588C0.98 0.196667 1.45067 0.000666667 2 0H9.175C9.44167 0 9.696 0.0500001 9.938 0.15C10.18 0.25 10.3923 0.391667 10.575 0.575L15.425 5.425C15.6083 5.60833 15.75 5.821 15.85 6.063C15.95 6.305 16 6.559 16 6.825V18C16 18.55 15.8043 19.021 15.413 19.413C15.0217 19.805 14.5507 20.0007 14 20Z" fill="#AC36A6" fill-opacity="0.93"/>
</svg>
